<svg width="85" height="65" viewBox="0 0 85 65" fill="none" xmlns="http://www.w3.org/2000/svg">
<rect width="5" height="5" rx="2.5" fill="#3BC5C4" fill-opacity="0.4"/>
<rect y="20" width="5" height="5" rx="2.5" fill="#3BC5C4" fill-opacity="0.4"/>
<rect y="40" width="5" height="5" rx="2.5" fill="#3BC5C4" fill-opacity="0.4"/>
<rect y="60" width="5" height="5" rx="2.5" fill="#3BC5C4" fill-opacity="0.4"/>
<rect x="20" width="5" height="5" rx="2.5" fill="#3BC5C4" fill-opacity="0.4"/>
<rect x="20" y="20" width="5" height="5" rx="2.5" fill="#3BC5C4" fill-opacity="0.4"/>
<rect x="20" y="40" width="5" height="5" rx="2.5" fill="#3BC5C4" fill-opacity="0.4"/>
<rect x="20" y="60" width="5" height="5" rx="2.5" fill="#3BC5C4" fill-opacity="0.4"/>
<rect x="40" width="5" height="5" rx="2.5" fill="#3BC5C4" fill-opacity="0.4"/>
<rect x="40" y="20" width="5" height="5" rx="2.5" fill="#3BC5C4" fill-opacity="0.4"/>
<rect x="40" y="40" width="5" height="5" rx="2.5" fill="#3BC5C4" fill-opacity="0.4"/>
<rect x="40" y="60" width="5" height="5" rx="2.5" fill="#3BC5C4" fill-opacity="0.4"/>
<rect x="60" width="5" height="5" rx="2.5" fill="#3BC5C4" fill-opacity="0.4"/>
<rect x="60" y="20" width="5" height="5" rx="2.5" fill="#3BC5C4" fill-opacity="0.4"/>
<rect x="60" y="40" width="5" height="5" rx="2.5" fill="#3BC5C4" fill-opacity="0.4"/>
<rect x="60" y="60" width="5" height="5" rx="2.5" fill="#3BC5C4" fill-opacity="0.4"/>
<rect x="80" width="5" height="5" rx="2.5" fill="#3BC5C4" fill-opacity="0.4"/>
<rect x="80" y="20" width="5" height="5" rx="2.5" fill="#3BC5C4" fill-opacity="0.4"/>
<rect x="80" y="40" width="5" height="5" rx="2.5" fill="#3BC5C4" fill-opacity="0.4"/>
<rect x="80" y="60" width="5" height="5" rx="2.5" fill="#3BC5C4" fill-opacity="0.4"/>
</svg>
