<svg width="234" height="205" viewBox="0 0 234 205" fill="none" xmlns="http://www.w3.org/2000/svg">
<path d="M131.74 71.7709L-30.4298 118.311C-34.7171 119.541 -37.6713 123.463 -37.6713 127.923V172.616C-37.6713 179.264 -31.3035 184.062 -24.9128 182.228L137.257 135.688C141.545 134.457 144.499 130.536 144.499 126.075V81.3829C144.499 74.7342 138.131 69.9368 131.74 71.7709Z" fill="#1E95AE"/>
<path d="M169.792 4.21584L-43.7919 66.3157C-48.0626 67.5574 -51 71.4705 -51 75.918V122.437C-51 129.09 -44.624 133.888 -38.2309 132.045L175.353 70.4952C179.635 69.2612 182.584 65.3426 182.584 60.8863V13.8182C182.584 7.15505 176.19 2.35556 169.792 4.21584Z" fill="#23D5DF"/>
<g filter="url(#filter0_b_316_5220)">
<path d="M221.208 73.2823L7.624 135.382C3.35328 136.624 0.415894 140.537 0.415894 144.984V191.503C0.415894 198.156 6.79189 202.954 13.185 201.112L226.769 139.562C231.051 138.328 234 134.409 234 129.953V82.8846C234 76.2215 227.606 71.422 221.208 73.2823Z" fill="black" fill-opacity="0.04"/>
<path d="M7.76359 135.862L221.348 73.7624C227.426 71.9951 233.5 76.5546 233.5 82.8846V129.953C233.5 134.186 230.699 137.909 226.631 139.081L13.0465 200.631C6.97309 202.382 0.915894 197.824 0.915894 191.503V144.984C0.915894 140.759 3.70641 137.042 7.76359 135.862Z" stroke="white"/>
</g>
<defs>
<filter id="filter0_b_316_5220" x="-30.5841" y="41.8784" width="295.584" height="190.631" filterUnits="userSpaceOnUse" color-interpolation-filters="sRGB">
<feFlood flood-opacity="0" result="BackgroundImageFix"/>
<feGaussianBlur in="BackgroundImageFix" stdDeviation="15.5"/>
<feComposite in2="SourceAlpha" operator="in" result="effect1_backgroundBlur_316_5220"/>
<feBlend mode="normal" in="SourceGraphic" in2="effect1_backgroundBlur_316_5220" result="shape"/>
</filter>
</defs>
</svg>
