<svg width="18" height="16" viewBox="0 0 18 16" fill="none" xmlns="http://www.w3.org/2000/svg">
<path d="M6.50033 15.5C6.26421 15.5 6.06644 15.42 5.90699 15.26C5.74699 15.1006 5.66699 14.9028 5.66699 14.6667V13.8333H2.33366C1.87533 13.8333 1.4831 13.6703 1.15699 13.3442C0.830326 13.0175 0.666992 12.625 0.666992 12.1667V2.16667C0.666992 1.70833 0.830326 1.31583 1.15699 0.989167C1.4831 0.663055 1.87533 0.5 2.33366 0.5H15.667C16.1253 0.5 16.5178 0.663055 16.8445 0.989167C17.1706 1.31583 17.3337 1.70833 17.3337 2.16667V12.1667C17.3337 12.625 17.1706 13.0175 16.8445 13.3442C16.5178 13.6703 16.1253 13.8333 15.667 13.8333H12.3337V14.6667C12.3337 14.9028 12.2539 15.1006 12.0945 15.26C11.9345 15.42 11.7364 15.5 11.5003 15.5H6.50033ZM2.33366 12.1667H15.667V2.16667H2.33366V12.1667Z" fill="#1F2029"/>
<path d="M6.94866 9.18772V4.72938C6.94866 4.39605 7.09449 4.15299 7.38616 4.00022C7.67782 3.84744 7.96255 3.86133 8.24033 4.04188L11.6987 6.25022C11.9625 6.40299 12.0945 6.63911 12.0945 6.95855C12.0945 7.27799 11.9625 7.51411 11.6987 7.66688L8.24033 9.87522C7.96255 10.0558 7.67782 10.0697 7.38616 9.91688C7.09449 9.76411 6.94866 9.52105 6.94866 9.18772Z" fill="#1F2029"/>
</svg>
