<svg width="182" height="60" viewBox="0 0 182 60" fill="none" xmlns="http://www.w3.org/2000/svg">
<rect width="182" height="60" rx="30" fill="#158DA7"/>
<path d="M32.5273 29.2598C32.5273 27.4531 33.3574 26.1348 34.9688 25.1094C34.041 23.791 32.6738 23.1074 30.8672 22.9609C29.1094 22.8145 27.2051 23.9375 26.5215 23.9375C25.7891 23.9375 24.1289 23.0098 22.8105 23.0098C20.0762 23.0586 17.1953 25.1582 17.1953 29.5039C17.1953 30.7734 17.3906 32.0918 17.8789 33.459C18.5137 35.2656 20.7598 39.6602 23.1035 39.5625C24.3242 39.5625 25.2031 38.6836 26.8145 38.6836C28.377 38.6836 29.1582 39.5625 30.5254 39.5625C32.918 39.5625 34.9688 35.5586 35.5547 33.752C32.3809 32.2383 32.5273 29.3574 32.5273 29.2598ZM29.793 21.252C31.1113 19.6895 30.9648 18.2246 30.9648 17.6875C29.793 17.7852 28.4258 18.5176 27.6445 19.3965C26.7656 20.373 26.2773 21.5938 26.375 22.9121C27.6445 23.0098 28.8164 22.375 29.793 21.252Z" fill="white"/>
<rect opacity="0.2" x="53" y="15" width="1" height="30" fill="#F5F5F5"/>
<path d="M70.32 25C70.232 25 70.164 24.976 70.116 24.928C70.068 24.872 70.044 24.804 70.044 24.724V16.888C70.044 16.8 70.068 16.732 70.116 16.684C70.164 16.628 70.232 16.6 70.32 16.6H73.044C73.868 16.6 74.532 16.724 75.036 16.972C75.54 17.22 75.908 17.588 76.14 18.076C76.372 18.556 76.492 19.148 76.5 19.852C76.508 20.212 76.512 20.528 76.512 20.8C76.512 21.072 76.508 21.384 76.5 21.736C76.484 22.472 76.36 23.084 76.128 23.572C75.904 24.052 75.544 24.412 75.048 24.652C74.56 24.884 73.912 25 73.104 25H70.32ZM71.22 23.98H73.044C73.596 23.98 74.036 23.904 74.364 23.752C74.692 23.6 74.928 23.356 75.072 23.02C75.224 22.684 75.304 22.24 75.312 21.688C75.328 21.448 75.336 21.24 75.336 21.064C75.336 20.88 75.336 20.7 75.336 20.524C75.336 20.34 75.328 20.132 75.312 19.9C75.296 19.124 75.112 18.552 74.76 18.184C74.408 17.808 73.816 17.62 72.984 17.62H71.22V23.98ZM80.7174 25.12C80.1094 25.12 79.6014 25.004 79.1934 24.772C78.7854 24.54 78.4734 24.22 78.2574 23.812C78.0414 23.396 77.9214 22.924 77.8974 22.396C77.8894 22.26 77.8854 22.088 77.8854 21.88C77.8854 21.664 77.8894 21.492 77.8974 21.364C77.9214 20.828 78.0414 20.356 78.2574 19.948C78.4814 19.54 78.7974 19.22 79.2054 18.988C79.6134 18.756 80.1174 18.64 80.7174 18.64C81.3174 18.64 81.8214 18.756 82.2294 18.988C82.6374 19.22 82.9494 19.54 83.1654 19.948C83.3894 20.356 83.5134 20.828 83.5374 21.364C83.5454 21.492 83.5494 21.664 83.5494 21.88C83.5494 22.088 83.5454 22.26 83.5374 22.396C83.5134 22.924 83.3934 23.396 83.1774 23.812C82.9614 24.22 82.6494 24.54 82.2414 24.772C81.8334 25.004 81.3254 25.12 80.7174 25.12ZM80.7174 24.196C81.2134 24.196 81.6094 24.04 81.9054 23.728C82.2014 23.408 82.3614 22.944 82.3854 22.336C82.3934 22.216 82.3974 22.064 82.3974 21.88C82.3974 21.696 82.3934 21.544 82.3854 21.424C82.3614 20.816 82.2014 20.356 81.9054 20.044C81.6094 19.724 81.2134 19.564 80.7174 19.564C80.2214 19.564 79.8214 19.724 79.5174 20.044C79.2214 20.356 79.0654 20.816 79.0494 21.424C79.0414 21.544 79.0374 21.696 79.0374 21.88C79.0374 22.064 79.0414 22.216 79.0494 22.336C79.0654 22.944 79.2214 23.408 79.5174 23.728C79.8214 24.04 80.2214 24.196 80.7174 24.196ZM86.544 25C86.44 25 86.36 24.976 86.304 24.928C86.248 24.872 86.2 24.796 86.16 24.7L84.456 19.132C84.44 19.092 84.432 19.052 84.432 19.012C84.432 18.94 84.456 18.88 84.504 18.832C84.56 18.784 84.62 18.76 84.684 18.76H85.212C85.3 18.76 85.368 18.784 85.416 18.832C85.464 18.88 85.496 18.924 85.512 18.964L86.844 23.488L88.272 19.012C88.288 18.956 88.32 18.9 88.368 18.844C88.424 18.788 88.504 18.76 88.608 18.76H89.016C89.12 18.76 89.2 18.788 89.256 18.844C89.312 18.9 89.344 18.956 89.352 19.012L90.78 23.488L92.112 18.964C92.12 18.924 92.148 18.88 92.196 18.832C92.244 18.784 92.312 18.76 92.4 18.76H92.94C93.004 18.76 93.06 18.784 93.108 18.832C93.156 18.88 93.18 18.94 93.18 19.012C93.18 19.052 93.172 19.092 93.156 19.132L91.464 24.7C91.432 24.796 91.388 24.872 91.332 24.928C91.276 24.976 91.188 25 91.068 25H90.6C90.496 25 90.408 24.976 90.336 24.928C90.272 24.872 90.228 24.796 90.204 24.7L88.812 20.404L87.42 24.7C87.388 24.796 87.34 24.872 87.276 24.928C87.212 24.976 87.124 25 87.012 25H86.544ZM94.7851 25C94.7051 25 94.6371 24.976 94.5811 24.928C94.5331 24.872 94.5091 24.804 94.5091 24.724V19.036C94.5091 18.956 94.5331 18.892 94.5811 18.844C94.6371 18.788 94.7051 18.76 94.7851 18.76H95.3491C95.4291 18.76 95.4931 18.788 95.5411 18.844C95.5971 18.892 95.6251 18.956 95.6251 19.036V19.564C95.8331 19.292 96.0931 19.072 96.4051 18.904C96.7251 18.728 97.1331 18.64 97.6291 18.64C98.1491 18.64 98.5891 18.756 98.9491 18.988C99.3171 19.212 99.5931 19.528 99.7771 19.936C99.9691 20.336 100.065 20.804 100.065 21.34V24.724C100.065 24.804 100.037 24.872 99.9811 24.928C99.9331 24.976 99.8691 25 99.7891 25H99.1891C99.1091 25 99.0411 24.976 98.9851 24.928C98.9371 24.872 98.9131 24.804 98.9131 24.724V21.4C98.9131 20.84 98.7771 20.404 98.5051 20.092C98.2331 19.772 97.8331 19.612 97.3051 19.612C96.8091 19.612 96.4091 19.772 96.1051 20.092C95.8091 20.404 95.6611 20.84 95.6611 21.4V24.724C95.6611 24.804 95.6331 24.872 95.5771 24.928C95.5291 24.976 95.4651 25 95.3851 25H94.7851ZM102.074 25C101.994 25 101.926 24.976 101.87 24.928C101.822 24.872 101.798 24.804 101.798 24.724V16.756C101.798 16.676 101.822 16.612 101.87 16.564C101.926 16.508 101.994 16.48 102.074 16.48H102.638C102.726 16.48 102.794 16.508 102.842 16.564C102.89 16.612 102.914 16.676 102.914 16.756V24.724C102.914 24.804 102.89 24.872 102.842 24.928C102.794 24.976 102.726 25 102.638 25H102.074ZM107.26 25.12C106.652 25.12 106.144 25.004 105.736 24.772C105.328 24.54 105.016 24.22 104.8 23.812C104.584 23.396 104.464 22.924 104.44 22.396C104.432 22.26 104.428 22.088 104.428 21.88C104.428 21.664 104.432 21.492 104.44 21.364C104.464 20.828 104.584 20.356 104.8 19.948C105.024 19.54 105.34 19.22 105.748 18.988C106.156 18.756 106.66 18.64 107.26 18.64C107.86 18.64 108.364 18.756 108.772 18.988C109.18 19.22 109.492 19.54 109.708 19.948C109.932 20.356 110.056 20.828 110.08 21.364C110.088 21.492 110.092 21.664 110.092 21.88C110.092 22.088 110.088 22.26 110.08 22.396C110.056 22.924 109.936 23.396 109.72 23.812C109.504 24.22 109.192 24.54 108.784 24.772C108.376 25.004 107.868 25.12 107.26 25.12ZM107.26 24.196C107.756 24.196 108.152 24.04 108.448 23.728C108.744 23.408 108.904 22.944 108.928 22.336C108.936 22.216 108.94 22.064 108.94 21.88C108.94 21.696 108.936 21.544 108.928 21.424C108.904 20.816 108.744 20.356 108.448 20.044C108.152 19.724 107.756 19.564 107.26 19.564C106.764 19.564 106.364 19.724 106.06 20.044C105.764 20.356 105.608 20.816 105.592 21.424C105.584 21.544 105.58 21.696 105.58 21.88C105.58 22.064 105.584 22.216 105.592 22.336C105.608 22.944 105.764 23.408 106.06 23.728C106.364 24.04 106.764 24.196 107.26 24.196ZM113.335 25.12C112.935 25.12 112.571 25.04 112.243 24.88C111.915 24.72 111.651 24.504 111.451 24.232C111.251 23.96 111.151 23.652 111.151 23.308C111.151 22.756 111.375 22.316 111.823 21.988C112.271 21.66 112.855 21.444 113.575 21.34L115.363 21.088V20.74C115.363 20.356 115.251 20.056 115.027 19.84C114.811 19.624 114.455 19.516 113.959 19.516C113.607 19.516 113.319 19.588 113.095 19.732C112.871 19.876 112.715 20.06 112.627 20.284C112.579 20.404 112.495 20.464 112.375 20.464H111.835C111.747 20.464 111.679 20.44 111.631 20.392C111.591 20.336 111.571 20.272 111.571 20.2C111.571 20.08 111.615 19.932 111.703 19.756C111.799 19.58 111.943 19.408 112.135 19.24C112.327 19.072 112.571 18.932 112.867 18.82C113.171 18.7 113.539 18.64 113.971 18.64C114.451 18.64 114.855 18.704 115.183 18.832C115.511 18.952 115.767 19.116 115.951 19.324C116.143 19.532 116.279 19.768 116.359 20.032C116.447 20.296 116.491 20.564 116.491 20.836V24.724C116.491 24.804 116.463 24.872 116.407 24.928C116.359 24.976 116.295 25 116.215 25H115.663C115.575 25 115.507 24.976 115.459 24.928C115.411 24.872 115.387 24.804 115.387 24.724V24.208C115.283 24.352 115.143 24.496 114.967 24.64C114.791 24.776 114.571 24.892 114.307 24.988C114.043 25.076 113.719 25.12 113.335 25.12ZM113.587 24.22C113.915 24.22 114.215 24.152 114.487 24.016C114.759 23.872 114.971 23.652 115.123 23.356C115.283 23.06 115.363 22.688 115.363 22.24V21.904L113.971 22.108C113.403 22.188 112.975 22.324 112.687 22.516C112.399 22.7 112.255 22.936 112.255 23.224C112.255 23.448 112.319 23.636 112.447 23.788C112.583 23.932 112.751 24.04 112.951 24.112C113.159 24.184 113.371 24.22 113.587 24.22ZM120.496 25.12C120.056 25.12 119.676 25.044 119.356 24.892C119.036 24.732 118.772 24.52 118.564 24.256C118.364 23.984 118.212 23.676 118.108 23.332C118.012 22.988 117.956 22.624 117.94 22.24C117.932 22.112 117.928 21.992 117.928 21.88C117.928 21.768 117.932 21.648 117.94 21.52C117.956 21.144 118.012 20.784 118.108 20.44C118.212 20.096 118.364 19.788 118.564 19.516C118.772 19.244 119.036 19.032 119.356 18.88C119.676 18.72 120.056 18.64 120.496 18.64C120.968 18.64 121.36 18.724 121.672 18.892C121.984 19.06 122.24 19.268 122.44 19.516V16.756C122.44 16.676 122.464 16.612 122.512 16.564C122.568 16.508 122.636 16.48 122.716 16.48H123.292C123.372 16.48 123.436 16.508 123.484 16.564C123.54 16.612 123.568 16.676 123.568 16.756V24.724C123.568 24.804 123.54 24.872 123.484 24.928C123.436 24.976 123.372 25 123.292 25H122.752C122.664 25 122.596 24.976 122.548 24.928C122.5 24.872 122.476 24.804 122.476 24.724V24.22C122.276 24.476 122.016 24.692 121.696 24.868C121.376 25.036 120.976 25.12 120.496 25.12ZM120.748 24.148C121.148 24.148 121.468 24.056 121.708 23.872C121.948 23.688 122.128 23.456 122.248 23.176C122.368 22.888 122.432 22.596 122.44 22.3C122.448 22.172 122.452 22.02 122.452 21.844C122.452 21.66 122.448 21.504 122.44 21.376C122.432 21.096 122.364 20.82 122.236 20.548C122.116 20.276 121.932 20.052 121.684 19.876C121.444 19.7 121.132 19.612 120.748 19.612C120.34 19.612 120.016 19.704 119.776 19.888C119.536 20.064 119.364 20.3 119.26 20.596C119.156 20.884 119.096 21.196 119.08 21.532C119.072 21.764 119.072 21.996 119.08 22.228C119.096 22.564 119.156 22.88 119.26 23.176C119.364 23.464 119.536 23.7 119.776 23.884C120.016 24.06 120.34 24.148 120.748 24.148ZM130.85 25.12C130.242 25.12 129.734 25.004 129.326 24.772C128.918 24.54 128.606 24.22 128.39 23.812C128.174 23.396 128.054 22.924 128.03 22.396C128.022 22.26 128.018 22.088 128.018 21.88C128.018 21.664 128.022 21.492 128.03 21.364C128.054 20.828 128.174 20.356 128.39 19.948C128.614 19.54 128.93 19.22 129.338 18.988C129.746 18.756 130.25 18.64 130.85 18.64C131.45 18.64 131.954 18.756 132.362 18.988C132.77 19.22 133.082 19.54 133.298 19.948C133.522 20.356 133.646 20.828 133.67 21.364C133.678 21.492 133.682 21.664 133.682 21.88C133.682 22.088 133.678 22.26 133.67 22.396C133.646 22.924 133.526 23.396 133.31 23.812C133.094 24.22 132.782 24.54 132.374 24.772C131.966 25.004 131.458 25.12 130.85 25.12ZM130.85 24.196C131.346 24.196 131.742 24.04 132.038 23.728C132.334 23.408 132.494 22.944 132.518 22.336C132.526 22.216 132.53 22.064 132.53 21.88C132.53 21.696 132.526 21.544 132.518 21.424C132.494 20.816 132.334 20.356 132.038 20.044C131.742 19.724 131.346 19.564 130.85 19.564C130.354 19.564 129.954 19.724 129.65 20.044C129.354 20.356 129.198 20.816 129.182 21.424C129.174 21.544 129.17 21.696 129.17 21.88C129.17 22.064 129.174 22.216 129.182 22.336C129.198 22.944 129.354 23.408 129.65 23.728C129.954 24.04 130.354 24.196 130.85 24.196ZM135.461 25C135.381 25 135.313 24.976 135.257 24.928C135.209 24.872 135.185 24.804 135.185 24.724V19.036C135.185 18.956 135.209 18.892 135.257 18.844C135.313 18.788 135.381 18.76 135.461 18.76H136.025C136.105 18.76 136.169 18.788 136.217 18.844C136.273 18.892 136.301 18.956 136.301 19.036V19.564C136.509 19.292 136.769 19.072 137.081 18.904C137.401 18.728 137.809 18.64 138.305 18.64C138.825 18.64 139.265 18.756 139.625 18.988C139.993 19.212 140.269 19.528 140.453 19.936C140.645 20.336 140.741 20.804 140.741 21.34V24.724C140.741 24.804 140.713 24.872 140.657 24.928C140.609 24.976 140.545 25 140.465 25H139.865C139.785 25 139.717 24.976 139.661 24.928C139.613 24.872 139.589 24.804 139.589 24.724V21.4C139.589 20.84 139.453 20.404 139.181 20.092C138.909 19.772 138.509 19.612 137.981 19.612C137.485 19.612 137.085 19.772 136.781 20.092C136.485 20.404 136.337 20.84 136.337 21.4V24.724C136.337 24.804 136.309 24.872 136.253 24.928C136.205 24.976 136.141 25 136.061 25H135.461ZM147.582 25C147.134 25 146.77 24.916 146.49 24.748C146.21 24.572 146.006 24.328 145.878 24.016C145.75 23.696 145.686 23.32 145.686 22.888V19.72H144.75C144.67 19.72 144.602 19.696 144.546 19.648C144.498 19.592 144.474 19.524 144.474 19.444V19.036C144.474 18.956 144.498 18.892 144.546 18.844C144.602 18.788 144.67 18.76 144.75 18.76H145.686V16.756C145.686 16.676 145.71 16.612 145.758 16.564C145.814 16.508 145.882 16.48 145.962 16.48H146.526C146.606 16.48 146.67 16.508 146.718 16.564C146.774 16.612 146.802 16.676 146.802 16.756V18.76H148.29C148.378 18.76 148.446 18.788 148.494 18.844C148.542 18.892 148.566 18.956 148.566 19.036V19.444C148.566 19.524 148.542 19.592 148.494 19.648C148.446 19.696 148.378 19.72 148.29 19.72H146.802V22.804C146.802 23.18 146.866 23.476 146.994 23.692C147.122 23.908 147.35 24.016 147.678 24.016H148.41C148.49 24.016 148.554 24.044 148.602 24.1C148.658 24.148 148.686 24.212 148.686 24.292V24.724C148.686 24.804 148.658 24.872 148.602 24.928C148.554 24.976 148.49 25 148.41 25H147.582ZM150.121 25C150.041 25 149.973 24.976 149.917 24.928C149.869 24.872 149.845 24.804 149.845 24.724V16.756C149.845 16.676 149.869 16.612 149.917 16.564C149.973 16.508 150.041 16.48 150.121 16.48H150.721C150.809 16.48 150.877 16.508 150.925 16.564C150.973 16.612 150.997 16.676 150.997 16.756V19.552C151.213 19.28 151.477 19.06 151.789 18.892C152.101 18.724 152.497 18.64 152.977 18.64C153.497 18.64 153.937 18.756 154.297 18.988C154.665 19.212 154.941 19.528 155.125 19.936C155.317 20.336 155.413 20.804 155.413 21.34V24.724C155.413 24.804 155.389 24.872 155.341 24.928C155.293 24.976 155.225 25 155.137 25H154.537C154.457 25 154.389 24.976 154.333 24.928C154.285 24.872 154.261 24.804 154.261 24.724V21.4C154.261 20.84 154.125 20.404 153.853 20.092C153.581 19.772 153.181 19.612 152.653 19.612C152.157 19.612 151.757 19.772 151.453 20.092C151.149 20.404 150.997 20.84 150.997 21.4V24.724C150.997 24.804 150.973 24.872 150.925 24.928C150.877 24.976 150.809 25 150.721 25H150.121ZM159.642 25.12C158.81 25.12 158.15 24.868 157.662 24.364C157.174 23.852 156.906 23.156 156.858 22.276C156.85 22.172 156.846 22.04 156.846 21.88C156.846 21.712 156.85 21.576 156.858 21.472C156.89 20.904 157.022 20.408 157.254 19.984C157.486 19.552 157.802 19.22 158.202 18.988C158.61 18.756 159.086 18.64 159.63 18.64C160.238 18.64 160.746 18.768 161.154 19.024C161.57 19.28 161.886 19.644 162.102 20.116C162.318 20.588 162.426 21.14 162.426 21.772V21.976C162.426 22.064 162.398 22.132 162.342 22.18C162.294 22.228 162.23 22.252 162.15 22.252H157.998C157.998 22.26 157.998 22.276 157.998 22.3C157.998 22.324 157.998 22.344 157.998 22.36C158.014 22.688 158.086 22.996 158.214 23.284C158.342 23.564 158.526 23.792 158.766 23.968C159.014 24.144 159.302 24.232 159.63 24.232C159.918 24.232 160.158 24.188 160.35 24.1C160.542 24.012 160.698 23.916 160.818 23.812C160.938 23.7 161.018 23.612 161.058 23.548C161.13 23.452 161.186 23.396 161.226 23.38C161.266 23.356 161.33 23.344 161.418 23.344H162.006C162.078 23.344 162.138 23.368 162.186 23.416C162.242 23.456 162.266 23.516 162.258 23.596C162.25 23.716 162.186 23.864 162.066 24.04C161.946 24.208 161.774 24.376 161.55 24.544C161.334 24.712 161.062 24.852 160.734 24.964C160.414 25.068 160.05 25.12 159.642 25.12ZM157.998 21.424H161.286V21.388C161.286 21.028 161.218 20.708 161.082 20.428C160.954 20.148 160.766 19.928 160.518 19.768C160.27 19.6 159.974 19.516 159.63 19.516C159.286 19.516 158.99 19.6 158.742 19.768C158.502 19.928 158.318 20.148 158.19 20.428C158.062 20.708 157.998 21.028 157.998 21.388V21.424Z" fill="white"/>
<path d="M69.49 43C69.4153 43 69.3453 42.972 69.28 42.916C69.224 42.86 69.196 42.79 69.196 42.706C69.196 42.6687 69.2053 42.6267 69.224 42.58L72.598 33.55C72.626 33.4567 72.6773 33.3773 72.752 33.312C72.836 33.2373 72.948 33.2 73.088 33.2H74.614C74.754 33.2 74.8613 33.2373 74.936 33.312C75.0107 33.3773 75.0667 33.4567 75.104 33.55L78.478 42.58C78.4873 42.6267 78.492 42.6687 78.492 42.706C78.492 42.79 78.464 42.86 78.408 42.916C78.352 42.972 78.2867 43 78.212 43H76.994C76.8633 43 76.7653 42.972 76.7 42.916C76.644 42.8507 76.6067 42.79 76.588 42.734L75.93 41.026H71.772L71.114 42.734C71.0953 42.79 71.0533 42.8507 70.988 42.916C70.932 42.972 70.8387 43 70.708 43H69.49ZM72.262 39.416H75.44L73.844 35.09L72.262 39.416ZM79.981 45.66C79.8877 45.66 79.8084 45.6273 79.743 45.562C79.6777 45.4967 79.645 45.4173 79.645 45.324V36.056C79.645 35.9627 79.6777 35.8833 79.743 35.818C79.8084 35.7527 79.8877 35.72 79.981 35.72H81.087C81.1897 35.72 81.269 35.7527 81.325 35.818C81.3904 35.8833 81.423 35.9627 81.423 36.056V36.616C81.647 36.3173 81.941 36.07 82.305 35.874C82.669 35.678 83.1217 35.58 83.663 35.58C84.1577 35.58 84.587 35.6593 84.951 35.818C85.315 35.9767 85.6184 36.2053 85.861 36.504C86.1037 36.7933 86.2904 37.1387 86.421 37.54C86.5517 37.9413 86.6264 38.3847 86.645 38.87C86.6544 39.0287 86.659 39.192 86.659 39.36C86.659 39.528 86.6544 39.696 86.645 39.864C86.6357 40.3307 86.5657 40.7647 86.435 41.166C86.3044 41.558 86.113 41.9033 85.861 42.202C85.6184 42.4913 85.315 42.72 84.951 42.888C84.587 43.056 84.1577 43.14 83.663 43.14C83.159 43.14 82.7297 43.0513 82.375 42.874C82.0204 42.6873 81.731 42.4447 81.507 42.146V45.324C81.507 45.4173 81.4744 45.4967 81.409 45.562C81.353 45.6273 81.2737 45.66 81.171 45.66H79.981ZM83.145 41.642C83.5464 41.642 83.859 41.558 84.083 41.39C84.307 41.2127 84.4704 40.984 84.573 40.704C84.6757 40.424 84.7364 40.116 84.755 39.78C84.7644 39.5 84.7644 39.22 84.755 38.94C84.7364 38.604 84.6757 38.296 84.573 38.016C84.4704 37.736 84.307 37.512 84.083 37.344C83.859 37.1667 83.5464 37.078 83.145 37.078C82.7624 37.078 82.4497 37.1667 82.207 37.344C81.9737 37.5213 81.801 37.75 81.689 38.03C81.5864 38.3007 81.5257 38.5807 81.507 38.87C81.4977 39.038 81.493 39.2153 81.493 39.402C81.493 39.5887 81.4977 39.7707 81.507 39.948C81.5164 40.228 81.5817 40.4987 81.703 40.76C81.8244 41.012 82.0017 41.222 82.235 41.39C82.4684 41.558 82.7717 41.642 83.145 41.642ZM88.5806 45.66C88.4873 45.66 88.408 45.6273 88.3426 45.562C88.2773 45.4967 88.2446 45.4173 88.2446 45.324V36.056C88.2446 35.9627 88.2773 35.8833 88.3426 35.818C88.408 35.7527 88.4873 35.72 88.5806 35.72H89.6866C89.7893 35.72 89.8686 35.7527 89.9246 35.818C89.99 35.8833 90.0226 35.9627 90.0226 36.056V36.616C90.2466 36.3173 90.5406 36.07 90.9046 35.874C91.2686 35.678 91.7213 35.58 92.2626 35.58C92.7573 35.58 93.1866 35.6593 93.5506 35.818C93.9146 35.9767 94.218 36.2053 94.4606 36.504C94.7033 36.7933 94.89 37.1387 95.0206 37.54C95.1513 37.9413 95.226 38.3847 95.2446 38.87C95.254 39.0287 95.2586 39.192 95.2586 39.36C95.2586 39.528 95.254 39.696 95.2446 39.864C95.2353 40.3307 95.1653 40.7647 95.0346 41.166C94.904 41.558 94.7126 41.9033 94.4606 42.202C94.218 42.4913 93.9146 42.72 93.5506 42.888C93.1866 43.056 92.7573 43.14 92.2626 43.14C91.7586 43.14 91.3293 43.0513 90.9746 42.874C90.62 42.6873 90.3306 42.4447 90.1066 42.146V45.324C90.1066 45.4173 90.074 45.4967 90.0086 45.562C89.9526 45.6273 89.8733 45.66 89.7706 45.66H88.5806ZM91.7446 41.642C92.146 41.642 92.4586 41.558 92.6826 41.39C92.9066 41.2127 93.07 40.984 93.1726 40.704C93.2753 40.424 93.336 40.116 93.3546 39.78C93.364 39.5 93.364 39.22 93.3546 38.94C93.336 38.604 93.2753 38.296 93.1726 38.016C93.07 37.736 92.9066 37.512 92.6826 37.344C92.4586 37.1667 92.146 37.078 91.7446 37.078C91.362 37.078 91.0493 37.1667 90.8066 37.344C90.5733 37.5213 90.4006 37.75 90.2886 38.03C90.186 38.3007 90.1253 38.5807 90.1066 38.87C90.0973 39.038 90.0926 39.2153 90.0926 39.402C90.0926 39.5887 90.0973 39.7707 90.1066 39.948C90.116 40.228 90.1813 40.4987 90.3026 40.76C90.424 41.012 90.6013 41.222 90.8346 41.39C91.068 41.558 91.3713 41.642 91.7446 41.642ZM97.1803 43C97.0869 43 97.0076 42.9673 96.9423 42.902C96.8769 42.8367 96.8443 42.7573 96.8443 42.664V33.396C96.8443 33.3027 96.8769 33.2233 96.9423 33.158C97.0076 33.0927 97.0869 33.06 97.1803 33.06H98.3423C98.4356 33.06 98.5149 33.0927 98.5803 33.158C98.6456 33.2233 98.6783 33.3027 98.6783 33.396V42.664C98.6783 42.7573 98.6456 42.8367 98.5803 42.902C98.5149 42.9673 98.4356 43 98.3423 43H97.1803ZM103.671 43.14C102.635 43.14 101.814 42.8413 101.207 42.244C100.601 41.6467 100.274 40.7973 100.227 39.696C100.218 39.6027 100.213 39.486 100.213 39.346C100.213 39.1967 100.218 39.08 100.227 38.996C100.265 38.2867 100.423 37.68 100.703 37.176C100.993 36.6627 101.389 36.2707 101.893 36C102.397 35.72 102.99 35.58 103.671 35.58C104.427 35.58 105.062 35.7387 105.575 36.056C106.089 36.364 106.476 36.798 106.737 37.358C106.999 37.9087 107.129 38.548 107.129 39.276V39.57C107.129 39.6633 107.097 39.7427 107.031 39.808C106.966 39.8733 106.882 39.906 106.779 39.906H102.131C102.131 39.906 102.131 39.92 102.131 39.948C102.131 39.976 102.131 39.9993 102.131 40.018C102.141 40.3447 102.201 40.648 102.313 40.928C102.435 41.1987 102.607 41.418 102.831 41.586C103.065 41.754 103.34 41.838 103.657 41.838C103.919 41.838 104.138 41.8007 104.315 41.726C104.493 41.642 104.637 41.5487 104.749 41.446C104.861 41.3433 104.941 41.2593 104.987 41.194C105.071 41.082 105.137 41.0167 105.183 40.998C105.239 40.97 105.319 40.956 105.421 40.956H106.625C106.719 40.956 106.793 40.984 106.849 41.04C106.915 41.096 106.943 41.166 106.933 41.25C106.924 41.3993 106.845 41.5813 106.695 41.796C106.555 42.0107 106.35 42.2207 106.079 42.426C105.809 42.6313 105.468 42.804 105.057 42.944C104.656 43.0747 104.194 43.14 103.671 43.14ZM102.131 38.73H105.225V38.688C105.225 38.324 105.165 38.0067 105.043 37.736C104.922 37.456 104.745 37.2413 104.511 37.092C104.278 36.9333 103.998 36.854 103.671 36.854C103.345 36.854 103.065 36.9333 102.831 37.092C102.598 37.2413 102.421 37.456 102.299 37.736C102.187 38.0067 102.131 38.324 102.131 38.688V38.73ZM115.385 43.14C114.517 43.14 113.789 43.014 113.201 42.762C112.622 42.5007 112.179 42.1647 111.871 41.754C111.572 41.334 111.413 40.8953 111.395 40.438C111.395 40.354 111.423 40.284 111.479 40.228C111.535 40.172 111.605 40.144 111.689 40.144H112.935C113.056 40.144 113.145 40.172 113.201 40.228C113.266 40.2747 113.322 40.3353 113.369 40.41C113.425 40.5873 113.532 40.7647 113.691 40.942C113.849 41.11 114.064 41.25 114.335 41.362C114.615 41.474 114.965 41.53 115.385 41.53C116.057 41.53 116.556 41.418 116.883 41.194C117.219 40.97 117.387 40.6667 117.387 40.284C117.387 40.0133 117.298 39.7987 117.121 39.64C116.943 39.472 116.668 39.3227 116.295 39.192C115.931 39.052 115.445 38.9073 114.839 38.758C114.139 38.59 113.551 38.3893 113.075 38.156C112.608 37.9133 112.253 37.61 112.011 37.246C111.777 36.882 111.661 36.42 111.661 35.86C111.661 35.3187 111.805 34.838 112.095 34.418C112.393 33.998 112.813 33.6667 113.355 33.424C113.905 33.1813 114.559 33.06 115.315 33.06C115.921 33.06 116.458 33.144 116.925 33.312C117.391 33.4707 117.779 33.6853 118.087 33.956C118.395 34.2173 118.628 34.502 118.787 34.81C118.955 35.1087 119.043 35.4027 119.053 35.692C119.053 35.7667 119.025 35.8367 118.969 35.902C118.922 35.958 118.852 35.986 118.759 35.986H117.457C117.382 35.986 117.307 35.9673 117.233 35.93C117.158 35.8927 117.097 35.8227 117.051 35.72C116.995 35.4307 116.813 35.1833 116.505 34.978C116.197 34.7727 115.8 34.67 115.315 34.67C114.811 34.67 114.405 34.7633 114.097 34.95C113.789 35.1367 113.635 35.426 113.635 35.818C113.635 36.0793 113.709 36.2987 113.859 36.476C114.017 36.644 114.265 36.7933 114.601 36.924C114.946 37.0547 115.399 37.1947 115.959 37.344C116.752 37.5213 117.401 37.7267 117.905 37.96C118.409 38.1933 118.777 38.492 119.011 38.856C119.244 39.2107 119.361 39.6633 119.361 40.214C119.361 40.83 119.193 41.3573 118.857 41.796C118.53 42.2253 118.068 42.5567 117.471 42.79C116.873 43.0233 116.178 43.14 115.385 43.14ZM124.087 43C123.527 43 123.056 42.902 122.673 42.706C122.29 42.51 122.006 42.2207 121.819 41.838C121.632 41.446 121.539 40.9607 121.539 40.382V37.204H120.433C120.34 37.204 120.26 37.1713 120.195 37.106C120.13 37.0407 120.097 36.9567 120.097 36.854V36.056C120.097 35.9627 120.13 35.8833 120.195 35.818C120.26 35.7527 120.34 35.72 120.433 35.72H121.539V33.396C121.539 33.3027 121.567 33.2233 121.623 33.158C121.688 33.0927 121.772 33.06 121.875 33.06H123.009C123.102 33.06 123.182 33.0927 123.247 33.158C123.312 33.2233 123.345 33.3027 123.345 33.396V35.72H125.095C125.188 35.72 125.268 35.7527 125.333 35.818C125.398 35.8833 125.431 35.9627 125.431 36.056V36.854C125.431 36.9567 125.398 37.0407 125.333 37.106C125.268 37.1713 125.188 37.204 125.095 37.204H123.345V40.242C123.345 40.6247 123.41 40.9233 123.541 41.138C123.681 41.3527 123.919 41.46 124.255 41.46H125.221C125.314 41.46 125.394 41.4927 125.459 41.558C125.524 41.6233 125.557 41.7027 125.557 41.796V42.664C125.557 42.7573 125.524 42.8367 125.459 42.902C125.394 42.9673 125.314 43 125.221 43H124.087ZM130.019 43.14C129.272 43.14 128.642 43.0093 128.129 42.748C127.625 42.4867 127.238 42.118 126.967 41.642C126.706 41.166 126.556 40.6107 126.519 39.976C126.51 39.808 126.505 39.6027 126.505 39.36C126.505 39.1173 126.51 38.912 126.519 38.744C126.556 38.1 126.71 37.5447 126.981 37.078C127.261 36.602 127.653 36.2333 128.157 35.972C128.67 35.7107 129.291 35.58 130.019 35.58C130.747 35.58 131.363 35.7107 131.867 35.972C132.38 36.2333 132.772 36.602 133.043 37.078C133.323 37.5447 133.482 38.1 133.519 38.744C133.528 38.912 133.533 39.1173 133.533 39.36C133.533 39.6027 133.528 39.808 133.519 39.976C133.482 40.6107 133.328 41.166 133.057 41.642C132.796 42.118 132.408 42.4867 131.895 42.748C131.391 43.0093 130.766 43.14 130.019 43.14ZM130.019 41.754C130.514 41.754 130.896 41.6 131.167 41.292C131.438 40.9747 131.587 40.5127 131.615 39.906C131.624 39.766 131.629 39.584 131.629 39.36C131.629 39.136 131.624 38.954 131.615 38.814C131.587 38.2073 131.438 37.75 131.167 37.442C130.896 37.1247 130.514 36.966 130.019 36.966C129.524 36.966 129.142 37.1247 128.871 37.442C128.6 37.75 128.451 38.2073 128.423 38.814C128.414 38.954 128.409 39.136 128.409 39.36C128.409 39.584 128.414 39.766 128.423 39.906C128.451 40.5127 128.6 40.9747 128.871 41.292C129.142 41.6 129.524 41.754 130.019 41.754ZM135.42 43C135.327 43 135.247 42.9673 135.182 42.902C135.117 42.8367 135.084 42.7573 135.084 42.664V36.07C135.084 35.9673 135.117 35.8833 135.182 35.818C135.247 35.7527 135.327 35.72 135.42 35.72H136.554C136.647 35.72 136.727 35.7527 136.792 35.818C136.867 35.8833 136.904 35.9673 136.904 36.07V36.644C137.119 36.3453 137.394 36.1167 137.73 35.958C138.075 35.7993 138.472 35.72 138.92 35.72H139.494C139.597 35.72 139.676 35.7527 139.732 35.818C139.797 35.8833 139.83 35.9627 139.83 36.056V37.064C139.83 37.1573 139.797 37.2367 139.732 37.302C139.676 37.3673 139.597 37.4 139.494 37.4H138.402C137.954 37.4 137.604 37.526 137.352 37.778C137.109 38.0207 136.988 38.366 136.988 38.814V42.664C136.988 42.7573 136.955 42.8367 136.89 42.902C136.825 42.9673 136.741 43 136.638 43H135.42ZM143.962 43.14C142.926 43.14 142.105 42.8413 141.498 42.244C140.892 41.6467 140.565 40.7973 140.518 39.696C140.509 39.6027 140.504 39.486 140.504 39.346C140.504 39.1967 140.509 39.08 140.518 38.996C140.556 38.2867 140.714 37.68 140.994 37.176C141.284 36.6627 141.68 36.2707 142.184 36C142.688 35.72 143.281 35.58 143.962 35.58C144.718 35.58 145.353 35.7387 145.866 36.056C146.38 36.364 146.767 36.798 147.028 37.358C147.29 37.9087 147.42 38.548 147.42 39.276V39.57C147.42 39.6633 147.388 39.7427 147.322 39.808C147.257 39.8733 147.173 39.906 147.07 39.906H142.422C142.422 39.906 142.422 39.92 142.422 39.948C142.422 39.976 142.422 39.9993 142.422 40.018C142.432 40.3447 142.492 40.648 142.604 40.928C142.726 41.1987 142.898 41.418 143.122 41.586C143.356 41.754 143.631 41.838 143.948 41.838C144.21 41.838 144.429 41.8007 144.606 41.726C144.784 41.642 144.928 41.5487 145.04 41.446C145.152 41.3433 145.232 41.2593 145.278 41.194C145.362 41.082 145.428 41.0167 145.474 40.998C145.53 40.97 145.61 40.956 145.712 40.956H146.916C147.01 40.956 147.084 40.984 147.14 41.04C147.206 41.096 147.234 41.166 147.224 41.25C147.215 41.3993 147.136 41.5813 146.986 41.796C146.846 42.0107 146.641 42.2207 146.37 42.426C146.1 42.6313 145.759 42.804 145.348 42.944C144.947 43.0747 144.485 43.14 143.962 43.14ZM142.422 38.73H145.516V38.688C145.516 38.324 145.456 38.0067 145.334 37.736C145.213 37.456 145.036 37.2413 144.802 37.092C144.569 36.9333 144.289 36.854 143.962 36.854C143.636 36.854 143.356 36.9333 143.122 37.092C142.889 37.2413 142.712 37.456 142.59 37.736C142.478 38.0067 142.422 38.324 142.422 38.688V38.73Z" fill="white"/>
</svg>
