<svg width="182" height="60" viewBox="0 0 182 60" fill="none" xmlns="http://www.w3.org/2000/svg">
<rect width="182" height="60" rx="30" fill="#272C37"/>
<rect width="182" height="60" rx="30" fill="#1F2029"/>
<rect opacity="0.2" x="64" y="15" width="1" height="30" fill="#E2E2EA"/>
<path d="M85.104 24.12C84.392 24.12 83.788 23.988 83.292 23.724C82.804 23.46 82.428 23.088 82.164 22.608C81.908 22.128 81.764 21.564 81.732 20.916C81.724 20.564 81.72 20.192 81.72 19.8C81.72 19.4 81.724 19.02 81.732 18.66C81.764 18.012 81.908 17.452 82.164 16.98C82.428 16.5 82.808 16.132 83.304 15.876C83.8 15.612 84.4 15.48 85.104 15.48C85.664 15.48 86.152 15.56 86.568 15.72C86.984 15.88 87.324 16.084 87.588 16.332C87.86 16.572 88.06 16.824 88.188 17.088C88.324 17.352 88.396 17.584 88.404 17.784C88.412 17.856 88.392 17.916 88.344 17.964C88.296 18.004 88.232 18.024 88.152 18.024H87.444C87.364 18.024 87.304 18.008 87.264 17.976C87.232 17.944 87.2 17.888 87.168 17.808C87.096 17.6 86.976 17.396 86.808 17.196C86.648 16.996 86.428 16.832 86.148 16.704C85.876 16.568 85.528 16.5 85.104 16.5C84.464 16.5 83.948 16.672 83.556 17.016C83.172 17.36 82.964 17.928 82.932 18.72C82.908 19.432 82.908 20.144 82.932 20.856C82.964 21.656 83.176 22.232 83.568 22.584C83.96 22.928 84.472 23.1 85.104 23.1C85.528 23.1 85.904 23.02 86.232 22.86C86.568 22.7 86.832 22.46 87.024 22.14C87.216 21.812 87.312 21.396 87.312 20.892V20.388H85.512C85.432 20.388 85.364 20.364 85.308 20.316C85.26 20.26 85.236 20.188 85.236 20.1V19.716C85.236 19.628 85.26 19.56 85.308 19.512C85.364 19.456 85.432 19.428 85.512 19.428H88.224C88.312 19.428 88.38 19.456 88.428 19.512C88.476 19.56 88.5 19.628 88.5 19.716V20.868C88.5 21.524 88.364 22.096 88.092 22.584C87.828 23.072 87.44 23.452 86.928 23.724C86.416 23.988 85.808 24.12 85.104 24.12ZM92.552 24.12C91.72 24.12 91.06 23.868 90.572 23.364C90.084 22.852 89.816 22.156 89.768 21.276C89.76 21.172 89.756 21.04 89.756 20.88C89.756 20.712 89.76 20.576 89.768 20.472C89.8 19.904 89.932 19.408 90.164 18.984C90.396 18.552 90.712 18.22 91.112 17.988C91.52 17.756 91.996 17.64 92.54 17.64C93.148 17.64 93.656 17.768 94.064 18.024C94.48 18.28 94.796 18.644 95.012 19.116C95.228 19.588 95.336 20.14 95.336 20.772V20.976C95.336 21.064 95.308 21.132 95.252 21.18C95.204 21.228 95.14 21.252 95.06 21.252H90.908C90.908 21.26 90.908 21.276 90.908 21.3C90.908 21.324 90.908 21.344 90.908 21.36C90.924 21.688 90.996 21.996 91.124 22.284C91.252 22.564 91.436 22.792 91.676 22.968C91.924 23.144 92.212 23.232 92.54 23.232C92.828 23.232 93.068 23.188 93.26 23.1C93.452 23.012 93.608 22.916 93.728 22.812C93.848 22.7 93.928 22.612 93.968 22.548C94.04 22.452 94.096 22.396 94.136 22.38C94.176 22.356 94.24 22.344 94.328 22.344H94.916C94.988 22.344 95.048 22.368 95.096 22.416C95.152 22.456 95.176 22.516 95.168 22.596C95.16 22.716 95.096 22.864 94.976 23.04C94.856 23.208 94.684 23.376 94.46 23.544C94.244 23.712 93.972 23.852 93.644 23.964C93.324 24.068 92.96 24.12 92.552 24.12ZM90.908 20.424H94.196V20.388C94.196 20.028 94.128 19.708 93.992 19.428C93.864 19.148 93.676 18.928 93.428 18.768C93.18 18.6 92.884 18.516 92.54 18.516C92.196 18.516 91.9 18.6 91.652 18.768C91.412 18.928 91.228 19.148 91.1 19.428C90.972 19.708 90.908 20.028 90.908 20.388V20.424ZM99.1717 24C98.7237 24 98.3597 23.916 98.0797 23.748C97.7997 23.572 97.5957 23.328 97.4677 23.016C97.3397 22.696 97.2757 22.32 97.2757 21.888V18.72H96.3397C96.2597 18.72 96.1917 18.696 96.1357 18.648C96.0877 18.592 96.0637 18.524 96.0637 18.444V18.036C96.0637 17.956 96.0877 17.892 96.1357 17.844C96.1917 17.788 96.2597 17.76 96.3397 17.76H97.2757V15.756C97.2757 15.676 97.2997 15.612 97.3477 15.564C97.4037 15.508 97.4717 15.48 97.5517 15.48H98.1157C98.1957 15.48 98.2597 15.508 98.3077 15.564C98.3637 15.612 98.3917 15.676 98.3917 15.756V17.76H99.8797C99.9677 17.76 100.036 17.788 100.084 17.844C100.132 17.892 100.156 17.956 100.156 18.036V18.444C100.156 18.524 100.132 18.592 100.084 18.648C100.036 18.696 99.9677 18.72 99.8797 18.72H98.3917V21.804C98.3917 22.18 98.4557 22.476 98.5837 22.692C98.7117 22.908 98.9397 23.016 99.2677 23.016H99.9997C100.08 23.016 100.144 23.044 100.192 23.1C100.248 23.148 100.276 23.212 100.276 23.292V23.724C100.276 23.804 100.248 23.872 100.192 23.928C100.144 23.976 100.08 24 99.9997 24H99.1717ZM104.641 24C104.561 24 104.493 23.976 104.437 23.928C104.389 23.872 104.365 23.804 104.365 23.724V18.036C104.365 17.956 104.389 17.892 104.437 17.844C104.493 17.788 104.561 17.76 104.641 17.76H105.217C105.297 17.76 105.361 17.788 105.409 17.844C105.465 17.892 105.493 17.956 105.493 18.036V23.724C105.493 23.804 105.465 23.872 105.409 23.928C105.361 23.976 105.297 24 105.217 24H104.641ZM104.545 16.596C104.465 16.596 104.397 16.572 104.341 16.524C104.293 16.468 104.269 16.4 104.269 16.32V15.672C104.269 15.592 104.293 15.524 104.341 15.468C104.397 15.412 104.465 15.384 104.545 15.384H105.301C105.381 15.384 105.449 15.412 105.505 15.468C105.561 15.524 105.589 15.592 105.589 15.672V16.32C105.589 16.4 105.561 16.468 105.505 16.524C105.449 16.572 105.381 16.596 105.301 16.596H104.545ZM107.652 24C107.572 24 107.504 23.976 107.448 23.928C107.4 23.872 107.376 23.804 107.376 23.724V18.036C107.376 17.956 107.4 17.892 107.448 17.844C107.504 17.788 107.572 17.76 107.652 17.76H108.216C108.296 17.76 108.36 17.788 108.408 17.844C108.464 17.892 108.492 17.956 108.492 18.036V18.564C108.7 18.292 108.96 18.072 109.272 17.904C109.592 17.728 110 17.64 110.496 17.64C111.016 17.64 111.456 17.756 111.816 17.988C112.184 18.212 112.46 18.528 112.644 18.936C112.836 19.336 112.932 19.804 112.932 20.34V23.724C112.932 23.804 112.904 23.872 112.848 23.928C112.8 23.976 112.736 24 112.656 24H112.056C111.976 24 111.908 23.976 111.852 23.928C111.804 23.872 111.78 23.804 111.78 23.724V20.4C111.78 19.84 111.644 19.404 111.372 19.092C111.1 18.772 110.7 18.612 110.172 18.612C109.676 18.612 109.276 18.772 108.972 19.092C108.676 19.404 108.528 19.84 108.528 20.4V23.724C108.528 23.804 108.5 23.872 108.444 23.928C108.396 23.976 108.332 24 108.252 24H107.652ZM120.151 24.12C119.543 24.12 119.035 24.004 118.627 23.772C118.219 23.54 117.907 23.22 117.691 22.812C117.475 22.396 117.355 21.924 117.331 21.396C117.323 21.26 117.319 21.088 117.319 20.88C117.319 20.664 117.323 20.492 117.331 20.364C117.355 19.828 117.475 19.356 117.691 18.948C117.915 18.54 118.231 18.22 118.639 17.988C119.047 17.756 119.551 17.64 120.151 17.64C120.751 17.64 121.255 17.756 121.663 17.988C122.071 18.22 122.383 18.54 122.599 18.948C122.823 19.356 122.947 19.828 122.971 20.364C122.979 20.492 122.983 20.664 122.983 20.88C122.983 21.088 122.979 21.26 122.971 21.396C122.947 21.924 122.827 22.396 122.611 22.812C122.395 23.22 122.083 23.54 121.675 23.772C121.267 24.004 120.759 24.12 120.151 24.12ZM120.151 23.196C120.647 23.196 121.043 23.04 121.339 22.728C121.635 22.408 121.795 21.944 121.819 21.336C121.827 21.216 121.831 21.064 121.831 20.88C121.831 20.696 121.827 20.544 121.819 20.424C121.795 19.816 121.635 19.356 121.339 19.044C121.043 18.724 120.647 18.564 120.151 18.564C119.655 18.564 119.255 18.724 118.951 19.044C118.655 19.356 118.499 19.816 118.483 20.424C118.475 20.544 118.471 20.696 118.471 20.88C118.471 21.064 118.475 21.216 118.483 21.336C118.499 21.944 118.655 22.408 118.951 22.728C119.255 23.04 119.655 23.196 120.151 23.196ZM124.762 24C124.682 24 124.614 23.976 124.558 23.928C124.51 23.872 124.486 23.804 124.486 23.724V18.036C124.486 17.956 124.51 17.892 124.558 17.844C124.614 17.788 124.682 17.76 124.762 17.76H125.326C125.406 17.76 125.47 17.788 125.518 17.844C125.574 17.892 125.602 17.956 125.602 18.036V18.564C125.81 18.292 126.07 18.072 126.382 17.904C126.702 17.728 127.11 17.64 127.606 17.64C128.126 17.64 128.566 17.756 128.926 17.988C129.294 18.212 129.57 18.528 129.754 18.936C129.946 19.336 130.042 19.804 130.042 20.34V23.724C130.042 23.804 130.014 23.872 129.958 23.928C129.91 23.976 129.846 24 129.766 24H129.166C129.086 24 129.018 23.976 128.962 23.928C128.914 23.872 128.89 23.804 128.89 23.724V20.4C128.89 19.84 128.754 19.404 128.482 19.092C128.21 18.772 127.81 18.612 127.282 18.612C126.786 18.612 126.386 18.772 126.082 19.092C125.786 19.404 125.638 19.84 125.638 20.4V23.724C125.638 23.804 125.61 23.872 125.554 23.928C125.506 23.976 125.442 24 125.362 24H124.762Z" fill="white"/>
<path d="M35.8691 29.5996L38.7988 26.6699L25.0781 18.7598L35.8691 29.5996ZM22.2949 18.125C21.6602 18.4668 21.2207 19.1016 21.2207 19.8828V41.416C21.2207 42.1973 21.6602 42.832 22.2949 43.125L34.7949 30.625L22.2949 18.125ZM43.0469 29.1602L40.166 27.5L36.9434 30.625L40.166 33.7988L43.0957 32.1387C43.9746 31.4551 43.9746 29.8438 43.0469 29.1602ZM25.0781 42.4902L38.7988 34.6289L35.8691 31.6992L25.0781 42.4902Z" fill="white"/>
<path d="M85.9 43.14C85.0413 43.14 84.3087 42.9907 83.702 42.692C83.1047 42.3933 82.638 41.964 82.302 41.404C81.9753 40.8347 81.798 40.158 81.77 39.374C81.7607 38.9727 81.756 38.5433 81.756 38.086C81.756 37.6193 81.7607 37.1807 81.77 36.77C81.798 35.9953 81.9753 35.3327 82.302 34.782C82.638 34.2313 83.1093 33.8067 83.716 33.508C84.332 33.2093 85.06 33.06 85.9 33.06C86.5813 33.06 87.1787 33.1533 87.692 33.34C88.2053 33.5173 88.63 33.7507 88.966 34.04C89.3113 34.32 89.568 34.6233 89.736 34.95C89.9133 35.2767 90.0067 35.58 90.016 35.86C90.0253 35.944 90.002 36.014 89.946 36.07C89.89 36.126 89.8153 36.154 89.722 36.154H88.28C88.1867 36.154 88.1167 36.1353 88.07 36.098C88.0233 36.0607 87.9813 36.0047 87.944 35.93C87.8693 35.734 87.7527 35.5427 87.594 35.356C87.4353 35.16 87.2207 34.9967 86.95 34.866C86.6793 34.7353 86.3293 34.67 85.9 34.67C85.2653 34.67 84.7567 34.838 84.374 35.174C84.0007 35.51 83.8 36.0653 83.772 36.84C83.744 37.652 83.744 38.4733 83.772 39.304C83.8 40.0973 84.0053 40.6667 84.388 41.012C84.78 41.3573 85.2933 41.53 85.928 41.53C86.348 41.53 86.7213 41.4553 87.048 41.306C87.384 41.1567 87.6453 40.9233 87.832 40.606C88.028 40.2887 88.126 39.8827 88.126 39.388V38.954H86.418C86.3247 38.954 86.2453 38.9213 86.18 38.856C86.1147 38.7907 86.082 38.7067 86.082 38.604V37.862C86.082 37.7593 86.1147 37.6753 86.18 37.61C86.2453 37.5447 86.3247 37.512 86.418 37.512H89.764C89.8667 37.512 89.946 37.5447 90.002 37.61C90.0673 37.6753 90.1 37.7593 90.1 37.862V39.332C90.1 40.116 89.9273 40.7927 89.582 41.362C89.246 41.9313 88.7607 42.37 88.126 42.678C87.5007 42.986 86.7587 43.14 85.9 43.14ZM94.9467 43.14C94.2001 43.14 93.5701 43.0093 93.0567 42.748C92.5527 42.4867 92.1654 42.118 91.8947 41.642C91.6334 41.166 91.4841 40.6107 91.4467 39.976C91.4374 39.808 91.4327 39.6027 91.4327 39.36C91.4327 39.1173 91.4374 38.912 91.4467 38.744C91.4841 38.1 91.6381 37.5447 91.9087 37.078C92.1887 36.602 92.5807 36.2333 93.0847 35.972C93.5981 35.7107 94.2187 35.58 94.9467 35.58C95.6747 35.58 96.2907 35.7107 96.7947 35.972C97.3081 36.2333 97.7001 36.602 97.9707 37.078C98.2507 37.5447 98.4094 38.1 98.4467 38.744C98.4561 38.912 98.4607 39.1173 98.4607 39.36C98.4607 39.6027 98.4561 39.808 98.4467 39.976C98.4094 40.6107 98.2554 41.166 97.9847 41.642C97.7234 42.118 97.3361 42.4867 96.8227 42.748C96.3187 43.0093 95.6934 43.14 94.9467 43.14ZM94.9467 41.754C95.4414 41.754 95.8241 41.6 96.0947 41.292C96.3654 40.9747 96.5147 40.5127 96.5427 39.906C96.5521 39.766 96.5567 39.584 96.5567 39.36C96.5567 39.136 96.5521 38.954 96.5427 38.814C96.5147 38.2073 96.3654 37.75 96.0947 37.442C95.8241 37.1247 95.4414 36.966 94.9467 36.966C94.4521 36.966 94.0694 37.1247 93.7987 37.442C93.5281 37.75 93.3787 38.2073 93.3507 38.814C93.3414 38.954 93.3367 39.136 93.3367 39.36C93.3367 39.584 93.3414 39.766 93.3507 39.906C93.3787 40.5127 93.5281 40.9747 93.7987 41.292C94.0694 41.6 94.4521 41.754 94.9467 41.754ZM103.232 43.14C102.485 43.14 101.855 43.0093 101.342 42.748C100.838 42.4867 100.451 42.118 100.18 41.642C99.9186 41.166 99.7692 40.6107 99.7319 39.976C99.7226 39.808 99.7179 39.6027 99.7179 39.36C99.7179 39.1173 99.7226 38.912 99.7319 38.744C99.7692 38.1 99.9232 37.5447 100.194 37.078C100.474 36.602 100.866 36.2333 101.37 35.972C101.883 35.7107 102.504 35.58 103.232 35.58C103.96 35.58 104.576 35.7107 105.08 35.972C105.593 36.2333 105.985 36.602 106.256 37.078C106.536 37.5447 106.695 38.1 106.732 38.744C106.741 38.912 106.746 39.1173 106.746 39.36C106.746 39.6027 106.741 39.808 106.732 39.976C106.695 40.6107 106.541 41.166 106.27 41.642C106.009 42.118 105.621 42.4867 105.108 42.748C104.604 43.0093 103.979 43.14 103.232 43.14ZM103.232 41.754C103.727 41.754 104.109 41.6 104.38 41.292C104.651 40.9747 104.8 40.5127 104.828 39.906C104.837 39.766 104.842 39.584 104.842 39.36C104.842 39.136 104.837 38.954 104.828 38.814C104.8 38.2073 104.651 37.75 104.38 37.442C104.109 37.1247 103.727 36.966 103.232 36.966C102.737 36.966 102.355 37.1247 102.084 37.442C101.813 37.75 101.664 38.2073 101.636 38.814C101.627 38.954 101.622 39.136 101.622 39.36C101.622 39.584 101.627 39.766 101.636 39.906C101.664 40.5127 101.813 40.9747 102.084 41.292C102.355 41.6 102.737 41.754 103.232 41.754ZM111.587 46.08C110.906 46.08 110.346 45.9913 109.907 45.814C109.468 45.6367 109.123 45.422 108.871 45.17C108.619 44.918 108.437 44.666 108.325 44.414C108.222 44.1713 108.166 43.98 108.157 43.84C108.148 43.7467 108.176 43.6627 108.241 43.588C108.316 43.5227 108.4 43.49 108.493 43.49H109.711C109.804 43.49 109.879 43.5087 109.935 43.546C109.991 43.5927 110.038 43.672 110.075 43.784C110.131 43.9053 110.206 44.036 110.299 44.176C110.392 44.316 110.532 44.4327 110.719 44.526C110.915 44.6287 111.181 44.68 111.517 44.68C111.872 44.68 112.17 44.6287 112.413 44.526C112.656 44.4233 112.838 44.2507 112.959 44.008C113.09 43.7653 113.155 43.4293 113.155 43V42.048C112.931 42.3187 112.642 42.538 112.287 42.706C111.942 42.874 111.512 42.958 110.999 42.958C110.504 42.958 110.07 42.8787 109.697 42.72C109.333 42.552 109.03 42.3233 108.787 42.034C108.544 41.7353 108.358 41.3853 108.227 40.984C108.106 40.5827 108.036 40.1393 108.017 39.654C108.008 39.402 108.008 39.15 108.017 38.898C108.036 38.4313 108.106 37.9973 108.227 37.596C108.358 37.1947 108.544 36.8447 108.787 36.546C109.03 36.238 109.333 36 109.697 35.832C110.07 35.664 110.504 35.58 110.999 35.58C111.531 35.58 111.979 35.6827 112.343 35.888C112.707 36.084 113.006 36.3313 113.239 36.63V36.07C113.239 35.9673 113.272 35.8833 113.337 35.818C113.402 35.7527 113.482 35.72 113.575 35.72H114.709C114.802 35.72 114.882 35.7527 114.947 35.818C115.012 35.8833 115.045 35.9673 115.045 36.07L115.059 42.818C115.059 43.49 114.933 44.0687 114.681 44.554C114.429 45.0393 114.046 45.4127 113.533 45.674C113.029 45.9447 112.38 46.08 111.587 46.08ZM111.517 41.474C111.9 41.474 112.208 41.39 112.441 41.222C112.674 41.054 112.847 40.8347 112.959 40.564C113.071 40.2933 113.136 40.018 113.155 39.738C113.164 39.6167 113.169 39.4627 113.169 39.276C113.169 39.0893 113.164 38.94 113.155 38.828C113.136 38.5387 113.071 38.2633 112.959 38.002C112.847 37.7313 112.674 37.512 112.441 37.344C112.208 37.1667 111.9 37.078 111.517 37.078C111.134 37.078 110.826 37.1667 110.593 37.344C110.36 37.512 110.192 37.736 110.089 38.016C109.996 38.296 109.94 38.604 109.921 38.94C109.902 39.164 109.902 39.3927 109.921 39.626C109.94 39.9527 109.996 40.2607 110.089 40.55C110.192 40.83 110.36 41.054 110.593 41.222C110.826 41.39 111.134 41.474 111.517 41.474ZM117.274 43C117.181 43 117.101 42.9673 117.036 42.902C116.971 42.8367 116.938 42.7573 116.938 42.664V33.396C116.938 33.3027 116.971 33.2233 117.036 33.158C117.101 33.0927 117.181 33.06 117.274 33.06H118.436C118.529 33.06 118.609 33.0927 118.674 33.158C118.739 33.2233 118.772 33.3027 118.772 33.396V42.664C118.772 42.7573 118.739 42.8367 118.674 42.902C118.609 42.9673 118.529 43 118.436 43H117.274ZM123.765 43.14C122.729 43.14 121.908 42.8413 121.301 42.244C120.694 41.6467 120.368 40.7973 120.321 39.696C120.312 39.6027 120.307 39.486 120.307 39.346C120.307 39.1967 120.312 39.08 120.321 38.996C120.358 38.2867 120.517 37.68 120.797 37.176C121.086 36.6627 121.483 36.2707 121.987 36C122.491 35.72 123.084 35.58 123.765 35.58C124.521 35.58 125.156 35.7387 125.669 36.056C126.182 36.364 126.57 36.798 126.831 37.358C127.092 37.9087 127.223 38.548 127.223 39.276V39.57C127.223 39.6633 127.19 39.7427 127.125 39.808C127.06 39.8733 126.976 39.906 126.873 39.906H122.225C122.225 39.906 122.225 39.92 122.225 39.948C122.225 39.976 122.225 39.9993 122.225 40.018C122.234 40.3447 122.295 40.648 122.407 40.928C122.528 41.1987 122.701 41.418 122.925 41.586C123.158 41.754 123.434 41.838 123.751 41.838C124.012 41.838 124.232 41.8007 124.409 41.726C124.586 41.642 124.731 41.5487 124.843 41.446C124.955 41.3433 125.034 41.2593 125.081 41.194C125.165 41.082 125.23 41.0167 125.277 40.998C125.333 40.97 125.412 40.956 125.515 40.956H126.719C126.812 40.956 126.887 40.984 126.943 41.04C127.008 41.096 127.036 41.166 127.027 41.25C127.018 41.3993 126.938 41.5813 126.789 41.796C126.649 42.0107 126.444 42.2207 126.173 42.426C125.902 42.6313 125.562 42.804 125.151 42.944C124.75 43.0747 124.288 43.14 123.765 43.14ZM122.225 38.73H125.319V38.688C125.319 38.324 125.258 38.0067 125.137 37.736C125.016 37.456 124.838 37.2413 124.605 37.092C124.372 36.9333 124.092 36.854 123.765 36.854C123.438 36.854 123.158 36.9333 122.925 37.092C122.692 37.2413 122.514 37.456 122.393 37.736C122.281 38.0067 122.225 38.324 122.225 38.688V38.73ZM132.412 43C132.319 43 132.24 42.9673 132.174 42.902C132.109 42.8367 132.076 42.7573 132.076 42.664V33.55C132.076 33.4473 132.109 33.3633 132.174 33.298C132.24 33.2327 132.319 33.2 132.412 33.2H136.164C136.892 33.2 137.527 33.3167 138.068 33.55C138.61 33.774 139.03 34.1193 139.328 34.586C139.627 35.0433 139.776 35.6173 139.776 36.308C139.776 37.008 139.627 37.5867 139.328 38.044C139.03 38.492 138.61 38.828 138.068 39.052C137.527 39.276 136.892 39.388 136.164 39.388H134.078V42.664C134.078 42.7573 134.046 42.8367 133.98 42.902C133.924 42.9673 133.845 43 133.742 43H132.412ZM134.05 37.834H136.094C136.636 37.834 137.051 37.708 137.34 37.456C137.63 37.1947 137.774 36.812 137.774 36.308C137.774 35.8413 137.639 35.468 137.368 35.188C137.098 34.8987 136.673 34.754 136.094 34.754H134.05V37.834ZM141.487 43C141.394 43 141.314 42.9673 141.249 42.902C141.184 42.8367 141.151 42.7573 141.151 42.664V33.396C141.151 33.3027 141.184 33.2233 141.249 33.158C141.314 33.0927 141.394 33.06 141.487 33.06H142.649C142.742 33.06 142.822 33.0927 142.887 33.158C142.952 33.2233 142.985 33.3027 142.985 33.396V42.664C142.985 42.7573 142.952 42.8367 142.887 42.902C142.822 42.9673 142.742 43 142.649 43H141.487ZM146.956 43.14C146.471 43.14 146.032 43.0467 145.64 42.86C145.248 42.664 144.935 42.4073 144.702 42.09C144.478 41.7633 144.366 41.3993 144.366 40.998C144.366 40.3447 144.632 39.8267 145.164 39.444C145.696 39.052 146.391 38.7907 147.25 38.66L149.168 38.38V38.086C149.168 37.694 149.07 37.3907 148.874 37.176C148.678 36.9613 148.342 36.854 147.866 36.854C147.53 36.854 147.255 36.924 147.04 37.064C146.835 37.1947 146.681 37.372 146.578 37.596C146.503 37.7173 146.396 37.778 146.256 37.778H145.15C145.047 37.778 144.968 37.75 144.912 37.694C144.865 37.638 144.842 37.5633 144.842 37.47C144.851 37.3207 144.912 37.1387 145.024 36.924C145.145 36.7093 145.323 36.504 145.556 36.308C145.799 36.1027 146.111 35.93 146.494 35.79C146.877 35.65 147.339 35.58 147.88 35.58C148.468 35.58 148.963 35.6547 149.364 35.804C149.775 35.944 150.101 36.1353 150.344 36.378C150.587 36.6207 150.764 36.9053 150.876 37.232C150.988 37.5587 151.044 37.904 151.044 38.268V42.664C151.044 42.7573 151.011 42.8367 150.946 42.902C150.881 42.9673 150.801 43 150.708 43H149.574C149.471 43 149.387 42.9673 149.322 42.902C149.266 42.8367 149.238 42.7573 149.238 42.664V42.118C149.117 42.286 148.953 42.4493 148.748 42.608C148.543 42.7667 148.291 42.8973 147.992 43C147.703 43.0933 147.357 43.14 146.956 43.14ZM147.432 41.81C147.759 41.81 148.053 41.74 148.314 41.6C148.585 41.46 148.795 41.2453 148.944 40.956C149.103 40.6573 149.182 40.284 149.182 39.836V39.542L147.782 39.766C147.231 39.85 146.821 39.9853 146.55 40.172C146.279 40.3587 146.144 40.5873 146.144 40.858C146.144 41.0633 146.205 41.2407 146.326 41.39C146.457 41.53 146.62 41.6373 146.816 41.712C147.012 41.7773 147.217 41.81 147.432 41.81ZM153.965 45.66C153.89 45.66 153.825 45.632 153.769 45.576C153.713 45.52 153.685 45.4547 153.685 45.38C153.685 45.3427 153.685 45.3053 153.685 45.268C153.694 45.24 153.713 45.2027 153.741 45.156L154.833 42.566L152.145 36.224C152.107 36.1307 152.089 36.0653 152.089 36.028C152.098 35.944 152.131 35.874 152.187 35.818C152.243 35.7527 152.313 35.72 152.397 35.72H153.531C153.643 35.72 153.727 35.748 153.783 35.804C153.839 35.86 153.881 35.9207 153.909 35.986L155.771 40.564L157.689 35.986C157.717 35.9113 157.759 35.8507 157.815 35.804C157.871 35.748 157.955 35.72 158.067 35.72H159.187C159.261 35.72 159.327 35.748 159.383 35.804C159.448 35.86 159.481 35.9253 159.481 36C159.481 36.056 159.462 36.1307 159.425 36.224L155.463 45.394C155.425 45.4687 155.379 45.5293 155.323 45.576C155.267 45.632 155.183 45.66 155.071 45.66H153.965Z" fill="white"/>
</svg>
