<svg width="1018" height="680" viewBox="0 0 1018 680" fill="none" xmlns="http://www.w3.org/2000/svg">
<path d="M415.482 103.078C416.421 125.999 434.183 335.53 625.993 456.758C785.13 557.341 982.041 564.93 1130.47 491.149" stroke="#738DFD" stroke-width="0.5" stroke-miterlimit="10"/>
<path d="M399.703 101.672C401.411 124.553 420.914 342.193 615.324 462.491C777.964 563.104 984.296 572.581 1130.15 494.724" stroke="#738DFD" stroke-width="0.5" stroke-miterlimit="10"/>
<path d="M385.113 100.359C391.368 158.466 417.548 352.593 612.433 472.415C772.799 571.052 985.748 576.201 1129.9 497.556" stroke="#738DFD" stroke-width="0.5" stroke-miterlimit="10"/>
<path d="M371.034 99.1094C381.639 199.233 418.054 364.228 609.62 479.999C770.857 577.441 985.311 580.706 1129.5 502.065" stroke="#738DFD" stroke-width="0.5" stroke-miterlimit="10"/>
<path d="M355.437 97.7109C366.541 204.043 410.236 374.079 603.479 487.509C760.977 579.962 990.637 585.532 1129.36 505.393" stroke="#738DFD" stroke-width="0.5" stroke-miterlimit="10"/>
<path d="M340.537 96.3828C353.212 223.729 407.239 388.633 603.917 497.042C770.273 588.741 987.466 586.76 1128.93 509.803" stroke="#738DFD" stroke-width="0.5" stroke-miterlimit="10"/>
<path d="M325.679 95.0547C338.906 236.914 404.051 400.921 601.82 505.863C768.86 594.496 985.384 593.246 1128.61 513.428" stroke="#738DFD" stroke-width="0.5" stroke-miterlimit="10"/>
<path d="M311.208 93.7656C324.435 235.625 388.711 402.518 586.44 507.457C753.48 596.09 981.255 602.136 1127.75 517.301" stroke="#738DFD" stroke-width="0.5" stroke-miterlimit="10"/>
<path d="M296.479 92.4453C308.076 252.896 391.259 417.805 585.241 516.591C753.965 602.574 981.43 605.966 1127.93 521.139" stroke="#738DFD" stroke-width="0.5" stroke-miterlimit="10"/>
<path d="M280.84 91.0469C293.248 260.107 389.017 430.204 584.345 526.746C750.874 609.061 980.593 609.626 1127.09 524.8" stroke="#738DFD" stroke-width="0.5" stroke-miterlimit="10"/>
<path d="M266.242 89.75C282.513 276.11 378.624 436.956 583.664 534.483C751.607 614.361 980.211 613.981 1126.71 529.146" stroke="#738DFD" stroke-width="0.5" stroke-miterlimit="10"/>
<path d="M251.313 89.2188C267.25 279.367 378.622 455.022 582.878 543.398C755.847 618.26 979.24 620.433 1126.41 532.549" stroke="#738DFD" stroke-width="0.5" stroke-miterlimit="10"/>
<path d="M236.713 87.9219C259.03 309.969 377.904 463.156 582.161 551.523C755.129 626.385 979.334 624.04 1126.5 536.154" stroke="#738DFD" stroke-width="0.5" stroke-miterlimit="10"/>
<path d="M221.004 86.5156C243.838 311.836 376.5 478.601 583.525 561.388C755.462 630.13 978.552 628.212 1125.72 540.328" stroke="#738DFD" stroke-width="0.5" stroke-miterlimit="10"/>
<path d="M206.985 84.4531C229.141 322.604 369.045 484.225 576.071 567.003C748.008 635.745 978.474 632.286 1125.64 544.401" stroke="#738DFD" stroke-width="0.5" stroke-miterlimit="10"/>
<path d="M191.668 83.0859C216.875 339.62 372.712 496.782 575.42 574.401C748.491 640.672 977.867 636.106 1125.03 548.221" stroke="#738DFD" stroke-width="0.5" stroke-miterlimit="10"/>
<path d="M176.629 81.7422C204.558 355.592 372.093 506.999 574.761 581.869C748.712 646.155 977.005 641.311 1125.02 551.429" stroke="#738DFD" stroke-width="0.5" stroke-miterlimit="10"/>
<path d="M161.579 80.3984C188.083 362.185 371.788 519.464 574.046 590.079C749.308 651.264 975.327 647.071 1124.65 555.715" stroke="#738DFD" stroke-width="0.5" stroke-miterlimit="10"/>
<path d="M146.34 79.8438C174.015 372.781 370.336 529.869 573.361 597.724C749.529 656.636 974.982 650.874 1124.3 559.563" stroke="#738DFD" stroke-width="0.5" stroke-miterlimit="10"/>
<path d="M132.23 77.7734C158.2 373.267 367.952 542.619 572.62 606.112C753.291 662.162 974.887 654.683 1124.21 563.318" stroke="#738DFD" stroke-width="0.5" stroke-miterlimit="10"/>
<path d="M116.542 77.1875C144.819 382.033 357.874 546.134 572.045 612.649C752.688 668.787 974.33 658.267 1123.65 566.902" stroke="#738DFD" stroke-width="0.5" stroke-miterlimit="10"/>
<path d="M102.083 75.8906C126.582 380.399 347.939 556.687 572.719 620.423C755.938 672.363 972.209 663.936 1123.01 571.049" stroke="#738DFD" stroke-width="0.5" stroke-miterlimit="10"/>
<path d="M87.4336 74.5859C112.656 390.423 342.747 562.682 572.07 627.896C755.265 679.989 971.867 667.81 1122.67 574.922" stroke="#738DFD" stroke-width="0.5" stroke-miterlimit="10"/>
<path d="M72.2246 73.2266C96.4913 393.842 340.302 575.664 571.439 635.039C762.386 684.088 971.86 671.536 1122.62 578.644" stroke="#738DFD" stroke-width="0.5" stroke-miterlimit="10"/>
<path d="M57.4053 71.8984C81.672 392.514 328.412 582.234 571.814 641.969C761.028 688.399 971.512 675.482 1122.27 582.59" stroke="#738DFD" stroke-width="0.5" stroke-miterlimit="10"/>
<path d="M42.8672 69.7969C72.4842 411.391 327.73 589.97 571.269 648.154C760.806 693.44 970.856 679.721 1121.62 586.83" stroke="#738DFD" stroke-width="0.5" stroke-miterlimit="10"/>
<path d="M28.0068 69.2734C56.9321 420.306 328.476 599.314 570.631 655.383C760.515 699.355 971.026 683.267 1121.82 590.379" stroke="#738DFD" stroke-width="0.5" stroke-miterlimit="10"/>
<path d="M382.68 78.8906C397.606 110.969 458.458 261.859 646.304 330.679C789.607 383.178 960.235 373.735 1081.93 300.161C1110.31 282.86 1136.01 262.073 1158.35 238.336" stroke="#14D1DF" stroke-width="0.5" stroke-miterlimit="10"/>
<path d="M367.9 76.6932C381.465 116.056 459.099 276.801 644.517 339.589C789.133 388.533 943.542 382.361 1078.26 306.606C1117.56 284.497 1144.85 255.448 1160.7 238.815" stroke="#14D1DF" stroke-width="0.5" stroke-miterlimit="10"/>
<path d="M352.971 72.7891C374.582 137.682 457.178 286.171 642.603 348.923C787.219 397.867 954.303 383.283 1073.13 313.949C1112.94 290.729 1146.61 260.356 1162.43 239.18" stroke="#14D1DF" stroke-width="0.5" stroke-miterlimit="10"/>
<path d="M338.966 69.9062C365.304 163.576 475.364 306.456 640.856 357.432C790.173 403.433 950.044 388.41 1067.65 321.472C1107.72 298.66 1139.53 273.066 1165.03 239.711" stroke="#14D1DF" stroke-width="0.5" stroke-miterlimit="10"/>
<path d="M324.058 67.6828C370.958 199.61 473.689 314.611 639.182 365.588C788.499 411.588 941.869 394.404 1063.65 327.964C1104.19 305.844 1142.14 273.598 1167.69 240.217" stroke="#14D1DF" stroke-width="0.5" stroke-miterlimit="10"/>
<path d="M309.354 63.8203C359.252 210.988 470.413 328.385 637.257 374.971C789.823 417.568 932.227 401.318 1058.66 334.733C1099.56 313.191 1144.41 277.162 1170.23 240.781" stroke="#14D1DF" stroke-width="0.5" stroke-miterlimit="10"/>
<path d="M294.996 60.8672C343.732 215.995 472.036 342.687 635.563 383.228C790.111 421.555 923.893 408.438 1054.46 341.793C1095.65 320.747 1146.63 278.471 1172.45 242.081" stroke="#14D1DF" stroke-width="0.5" stroke-miterlimit="10"/>
<path d="M280.028 57.7969C331.332 227.564 470.5 350.33 633.866 391.503C784.137 429.358 921.339 414.354 1051.91 347.709C1093.1 326.672 1148.78 278.92 1174.6 242.529" stroke="#14D1DF" stroke-width="0.5" stroke-miterlimit="10"/>
<path d="M265.603 55.6719C320.52 243.169 468.055 361.846 632.043 400.187C786.287 436.249 916.181 418.974 1047.68 353.878C1087.58 334.159 1148.58 285.944 1177.2 243.059" stroke="#14D1DF" stroke-width="0.5" stroke-miterlimit="10"/>
<path d="M250.478 52.5586C308.506 247.006 457.71 370.781 627.723 408.158C772.427 440.001 913.529 428.151 1042.65 360.392C1081.96 339.757 1141.38 298.24 1180.01 243.605" stroke="#14D1DF" stroke-width="0.5" stroke-miterlimit="10"/>
<path d="M235.705 48.6797C293.624 257.69 465.263 385.432 626.002 416.547C773.257 445.042 910.775 434.781 1039.89 367.022C1079.21 346.396 1141 302.644 1179.63 248.017" stroke="#14D1DF" stroke-width="0.5" stroke-miterlimit="10"/>
<path d="M221.378 46.5781C285.387 279.616 464.157 390.774 624.527 423.74C769.388 453.517 909.861 439.242 1038.98 371.483C1078.29 350.857 1139.95 307.778 1178.57 253.17" stroke="#14D1DF" stroke-width="0.5" stroke-miterlimit="10"/>
<path d="M206.438 42.6562C270.456 289.731 461.795 402.477 622.768 432.302C769.79 459.534 908.821 443.302 1036.11 377.994C1075.63 357.716 1138.05 314.489 1176.67 259.89" stroke="#14D1DF" stroke-width="0.5" stroke-miterlimit="10"/>
<path d="M192.257 40.5938C259.037 297.167 457.911 411.527 621.016 440.842C768.139 467.288 904.702 449.704 1031.99 384.396C1071.51 364.118 1136.77 320.716 1175.4 266.09" stroke="#14D1DF" stroke-width="0.5" stroke-miterlimit="10"/>
<path d="M177.349 37.5234C238.259 302.237 455.662 423.235 619.477 448.491C771.26 471.891 894.389 456.433 1028.21 391.224C1068.21 371.736 1135.82 325.525 1174.44 270.898" stroke="#14D1DF" stroke-width="0.5" stroke-miterlimit="10"/>
<path d="M162.725 33.6797C228.319 317.492 454.083 431.088 617.838 456.237C761.092 478.225 886.238 464.719 1024.53 397.535C1076.69 372.196 1131.01 331.415 1173.65 276.494" stroke="#14D1DF" stroke-width="0.5" stroke-miterlimit="10"/>
<path d="M148.101 30.6719C213.938 330.221 452.141 441.448 616.268 463.988C756.079 483.238 882.593 470.848 1021.59 403.801C1073.06 378.975 1131.43 333.378 1172.02 282.571" stroke="#14D1DF" stroke-width="0.5" stroke-miterlimit="10"/>
<path d="M133.428 27.6484C199.403 340.056 450.498 449.445 614.624 471.994C754.434 491.244 879.499 477.237 1018.48 410.185C1069.94 385.366 1129.75 338.787 1170.33 287.996" stroke="#14D1DF" stroke-width="0.5" stroke-miterlimit="10"/>
<path d="M118.785 24.6484C187.654 354.002 452.199 460.538 612.933 480.245C761.197 498.432 883.964 479.797 1017.35 415.686C1068.86 390.934 1129.33 345.002 1169.9 294.256" stroke="#14D1DF" stroke-width="0.5" stroke-miterlimit="10"/>
<path d="M103.729 21.9922C178.043 373.921 451.213 467.578 611.447 487.477C765.177 506.579 890.922 482.017 1016.43 420.186C1068.38 394.596 1127.91 350.547 1168.49 299.767" stroke="#14D1DF" stroke-width="0.5" stroke-miterlimit="10"/>
<path d="M89.2236 18.5703C159.256 368.908 433.208 477.121 609.758 495.723C763.028 511.875 884.3 487.295 1012.88 426.751C1065.35 402.036 1127.01 356.319 1167.59 305.528" stroke="#14D1DF" stroke-width="0.5" stroke-miterlimit="10"/>
<path d="M74.8555 16.0625C145.426 381.248 431.707 484.432 608.257 503.035C761.527 519.186 882.926 495.487 1010.25 432.73C1055.28 410.537 1125.52 362.181 1166.1 311.392" stroke="#14D1DF" stroke-width="0.5" stroke-miterlimit="10"/>
<path d="M59.6807 12.9375C128.712 387.524 429.899 495.633 606.739 510.423C758.791 523.126 878.533 502.36 1008.49 438.074C1053.48 415.817 1123.92 366.846 1164.85 317.523" stroke="#14D1DF" stroke-width="0.5" stroke-miterlimit="10"/>
<path d="M45.1943 9.51562C110.288 401.542 437.324 505.322 605.054 518.638C756.748 530.689 874.43 508.038 1006 444.776C1051.27 423.003 1123.14 372.061 1164.07 322.747" stroke="#14D1DF" stroke-width="0.5" stroke-miterlimit="10"/>
<path d="M30.6299 6.96875C96.1208 410.389 438.573 516.057 603.484 526.288C756.594 535.783 870.651 513.971 1002.2 450.715C1047.48 428.935 1121.97 377.658 1162.9 328.344" stroke="#14D1DF" stroke-width="0.5" stroke-miterlimit="10"/>
<path d="M16.0264 4.36719C84.6425 429.744 437.223 522.092 602.106 533.01C750.396 542.833 880.605 516.683 1000.23 456.786C1045.11 434.323 1120.89 382.893 1161.82 333.6" stroke="#14D1DF" stroke-width="0.5" stroke-miterlimit="10"/>
<path d="M1.14648 0.90625C71.3219 442.594 435.62 531.192 600.562 540.528C747.946 548.874 876.936 523.176 996.563 463.287C1041.43 440.824 1119.39 388.816 1160.33 339.506" stroke="#14D1DF" stroke-width="0.5" stroke-miterlimit="10"/>
</svg>
