<svg width="138" height="138" viewBox="0 0 138 138" fill="none" xmlns="http://www.w3.org/2000/svg">
<path d="M135 132C133.343 132 132 133.343 132 135C132 136.656 133.343 138 135 138C136.657 138 138 136.656 138 135C138 133.343 136.657 132 135 132Z" fill="#37CDD5"/>
<path d="M135 88.0004C133.343 88.0004 132 89.3436 132 91.0004C132 92.6573 133.343 94.0004 135 94.0004C136.657 94.0004 138 92.6573 138 91.0004C138 89.3436 136.657 88.0004 135 88.0004Z" fill="#22223B"/>
<path d="M135 44C133.343 44 132 45.3432 132 47C132 48.6569 133.343 50 135 50C136.657 50 138 48.6569 138 47C138 45.3432 136.657 44 135 44Z" fill="#22223B"/>
<path d="M135 0.00038147C133.343 0.00038147 132 1.34354 132 3.00038C132 4.65723 133.343 6.00038 135 6.00038C136.657 6.00038 138 4.65723 138 3.00038C138 1.34354 136.657 0.00038147 135 0.00038147Z" fill="#22223B"/>
<path d="M91 132C89.3432 132 88 133.343 88 135C88 136.657 89.3432 138 91 138C92.6569 138 94 136.657 94 135C94 133.343 92.6569 132 91 132Z" fill="#37CDD5"/>
<path d="M91 88.0004C89.3432 88.0004 88 89.3436 88 91.0004C88 92.6573 89.3432 94.0004 91 94.0004C92.6569 94.0004 94 92.6573 94 91.0004C94 89.3436 92.6569 88.0004 91 88.0004Z" fill="#22223B"/>
<path d="M91 44C89.3432 44 88 45.3432 88 47C88 48.6569 89.3432 50 91 50C92.6569 50 94 48.6569 94 47C94 45.3432 92.6569 44 91 44Z" fill="#22223B"/>
<path d="M91 0.00038147C89.3432 0.00038147 88 1.34354 88 3.00038C88 4.65723 89.3432 6.00038 91 6.00038C92.6569 6.00038 94 4.65723 94 3.00038C94 1.34354 92.6569 0.00038147 91 0.00038147Z" fill="#22223B"/>
<path d="M47 132C45.3432 132 44 133.343 44 135C44 136.657 45.3432 138 47 138C48.6569 138 50 136.657 50 135C50 133.343 48.6569 132 47 132Z" fill="#37CDD5"/>
<path d="M47 88.0004C45.3432 88.0004 44 89.3436 44 91.0004C44 92.6573 45.3432 94.0004 47 94.0004C48.6569 94.0004 50 92.6573 50 91.0004C50 89.3436 48.6569 88.0004 47 88.0004Z" fill="#22223B"/>
<path d="M47 44C45.3432 44 44 45.3432 44 47C44 48.6569 45.3432 50 47 50C48.6569 50 50 48.6569 50 47C50 45.3432 48.6569 44 47 44Z" fill="#22223B"/>
<path d="M47 0.00038147C45.3432 0.00038147 44 1.34354 44 3.00038C44 4.65723 45.3432 6.00038 47 6.00038C48.6569 6.00038 50 4.65723 50 3.00038C50 1.34354 48.6569 0.00038147 47 0.00038147Z" fill="#22223B"/>
<path d="M3 132C1.34314 132 0 133.343 0 135C0 136.657 1.34314 138 3 138C4.65686 138 6 136.657 6 135C6 133.343 4.65686 132 3 132Z" fill="#37CDD5"/>
<path d="M3 88.0004C1.34314 88.0004 0 89.3436 0 91.0004C0 92.6573 1.34314 94.0004 3 94.0004C4.65686 94.0004 6 92.6573 6 91.0004C6 89.3436 4.65686 88.0004 3 88.0004Z" fill="#22223B"/>
<path d="M3 44C1.34314 44 0 45.3432 0 47C0 48.6569 1.34314 50 3 50C4.65686 50 6 48.6569 6 47C6 45.3432 4.65686 44 3 44Z" fill="#22223B"/>
<path d="M3 0.00038147C1.34314 0.00038147 0 1.34354 0 3.00038C0 4.65723 1.34314 6.00038 3 6.00038C4.65686 6.00038 6 4.65723 6 3.00038C6 1.34354 4.65686 0.00038147 3 0.00038147Z" fill="#22223B"/>
</svg>
