<svg width="138" height="138" viewBox="0 0 138 138" fill="none" xmlns="http://www.w3.org/2000/svg">
<path d="M135 6.00092C133.343 6.00092 132 4.65778 132 3.00093C132 1.34408 133.343 0.000932548 135 0.000932548C136.657 0.000932548 138 1.34408 138 3.00093C138 4.65778 136.657 6.00092 135 6.00092Z" fill="#37CDD5"/>
<path d="M135 50.0001C133.343 50.0001 132 48.6569 132 47.0001C132 45.3432 133.343 44.0001 135 44.0001C136.657 44.0001 138 45.3432 138 47.0001C138 48.6569 136.657 50.0001 135 50.0001Z" fill="#22223B"/>
<path d="M135 94.0005C133.343 94.0005 132 92.6573 132 91.0005C132 89.3436 133.343 88.0005 135 88.0005C136.657 88.0005 138 89.3436 138 91.0005C138 92.6573 136.657 94.0005 135 94.0005Z" fill="#22223B"/>
<path d="M135 138C133.343 138 132 136.657 132 135C132 133.343 133.343 132 135 132C136.657 132 138 133.343 138 135C138 136.657 136.657 138 135 138Z" fill="#22223B"/>
<path d="M91 6.00048C89.3432 6.00048 88 4.65733 88 3.00048C88 1.34363 89.3432 0.000488281 91 0.000488281C92.6569 0.000488281 94 1.34363 94 3.00048C94 4.65733 92.6569 6.00048 91 6.00048Z" fill="#37CDD5"/>
<path d="M91 50.0001C89.3432 50.0001 88 48.6569 88 47.0001C88 45.3432 89.3432 44.0001 91 44.0001C92.6569 44.0001 94 45.3432 94 47.0001C94 48.6569 92.6569 50.0001 91 50.0001Z" fill="#22223B"/>
<path d="M91 94.0005C89.3432 94.0005 88 92.6573 88 91.0005C88 89.3436 89.3432 88.0005 91 88.0005C92.6569 88.0005 94 89.3436 94 91.0005C94 92.6573 92.6569 94.0005 91 94.0005Z" fill="#22223B"/>
<path d="M91 138C89.3432 138 88 136.657 88 135C88 133.343 89.3432 132 91 132C92.6569 132 94 133.343 94 135C94 136.657 92.6569 138 91 138Z" fill="#22223B"/>
<path d="M47 6.00048C45.3432 6.00048 44 4.65733 44 3.00048C44 1.34363 45.3432 0.000488281 47 0.000488281C48.6569 0.000488281 50 1.34363 50 3.00048C50 4.65733 48.6569 6.00048 47 6.00048Z" fill="#37CDD5"/>
<path d="M47 50.0001C45.3432 50.0001 44 48.6569 44 47.0001C44 45.3432 45.3432 44.0001 47 44.0001C48.6569 44.0001 50 45.3432 50 47.0001C50 48.6569 48.6569 50.0001 47 50.0001Z" fill="#22223B"/>
<path d="M47 94.0005C45.3432 94.0005 44 92.6573 44 91.0005C44 89.3436 45.3432 88.0005 47 88.0005C48.6569 88.0005 50 89.3436 50 91.0005C50 92.6573 48.6569 94.0005 47 94.0005Z" fill="#22223B"/>
<path d="M47 138C45.3432 138 44 136.657 44 135C44 133.343 45.3432 132 47 132C48.6569 132 50 133.343 50 135C50 136.657 48.6569 138 47 138Z" fill="#22223B"/>
<path d="M3 6.00048C1.34314 6.00048 0 4.65733 0 3.00048C0 1.34363 1.34314 0.000488281 3 0.000488281C4.65686 0.000488281 6 1.34363 6 3.00048C6 4.65733 4.65686 6.00048 3 6.00048Z" fill="#37CDD5"/>
<path d="M3 50.0001C1.34314 50.0001 0 48.6569 0 47.0001C0 45.3432 1.34314 44.0001 3 44.0001C4.65686 44.0001 6 45.3432 6 47.0001C6 48.6569 4.65686 50.0001 3 50.0001Z" fill="#22223B"/>
<path d="M3 94.0005C1.34314 94.0005 0 92.6573 0 91.0005C0 89.3436 1.34314 88.0005 3 88.0005C4.65686 88.0005 6 89.3436 6 91.0005C6 92.6573 4.65686 94.0005 3 94.0005Z" fill="#22223B"/>
<path d="M3 138C1.34314 138 0 136.657 0 135C0 133.343 1.34314 132 3 132C4.65686 132 6 133.343 6 135C6 136.657 4.65686 138 3 138Z" fill="#22223B"/>
</svg>
