<svg width="234" height="205" viewBox="0 0 234 205" fill="none" xmlns="http://www.w3.org/2000/svg">
<path d="M132.351 71.3053L-28.5421 117.805C-32.8205 119.042 -35.7656 122.958 -35.7656 127.412V172.093C-35.7656 178.75 -29.3839 183.548 -22.9892 181.7L137.904 135.2C142.182 133.964 145.127 130.047 145.127 125.594V80.9122C145.127 74.2557 138.746 69.4572 132.351 71.3053Z" fill="#1E95AE"/>
<path d="M170.136 3.75083L-41.8101 65.8096C-46.0717 67.0574 -49 70.9661 -49 75.4067V121.914C-49 128.575 -42.61 133.374 -36.2129 131.518L175.734 70.0081C180.007 68.768 182.946 64.8538 182.946 60.4044V13.3479C182.946 6.67686 176.539 1.87623 170.136 3.75083Z" fill="#23D5DF"/>
<g filter="url(#filter0_b_343_4221)">
<path d="M221.191 72.8172L9.24463 134.876C4.98299 136.124 2.05469 140.033 2.05469 144.473V190.98C2.05469 197.641 8.44468 202.441 14.8418 200.584L226.788 139.075C231.061 137.834 234.001 133.92 234.001 129.471V82.4143C234.001 75.7433 227.593 70.9426 221.191 72.8172Z" fill="black" fill-opacity="0.04"/>
<path d="M9.38513 135.356L221.332 73.2971C227.414 71.5162 233.501 76.0768 233.501 82.4143V129.471C233.501 133.698 230.708 137.416 226.649 138.594L14.7025 200.104C8.62518 201.868 2.55469 197.308 2.55469 190.98V144.473C2.55469 140.255 5.33658 136.541 9.38513 135.356Z" stroke="white"/>
</g>
<defs>
<filter id="filter0_b_343_4221" x="-28.9453" y="41.4082" width="293.945" height="190.579" filterUnits="userSpaceOnUse" color-interpolation-filters="sRGB">
<feFlood flood-opacity="0" result="BackgroundImageFix"/>
<feGaussianBlur in="BackgroundImageFix" stdDeviation="15.5"/>
<feComposite in2="SourceAlpha" operator="in" result="effect1_backgroundBlur_343_4221"/>
<feBlend mode="normal" in="SourceGraphic" in2="effect1_backgroundBlur_343_4221" result="shape"/>
</filter>
</defs>
</svg>
