<svg width="96" height="86" viewBox="0 0 96 86" fill="none" xmlns="http://www.w3.org/2000/svg">
<g clip-path="url(#clip0_1300_332)">
<path d="M96 57.9851C95.4505 59.0899 94.8776 60.1829 94.3634 61.3065C94.2154 61.6285 94.1966 62.0282 94.1966 62.3925C94.1872 68.5535 94.1074 74.7192 94.2225 80.8778C94.2882 84.3967 91.9072 85.9951 89.1599 85.981C73.8808 85.9082 58.5993 86.108 43.3226 85.9035C25.5779 85.6684 12.5154 77.453 4.34868 61.7179C0.511874 54.3275 -0.634002 46.3236 0.316981 38.0353C0.969755 32.3444 2.67683 26.9944 5.5016 22.0158C5.91487 21.2871 5.79042 20.8992 5.23626 20.368C3.74757 18.9412 2.31992 17.4485 0.857046 15.9935C0.185487 15.3259 -0.208994 14.5902 0.208969 13.6452C0.605799 12.7496 1.36424 12.5122 2.28235 12.5169C5.34428 12.5334 8.40621 12.5216 11.4681 12.5216C11.8016 12.5216 12.1374 12.5216 12.5671 12.5216C12.5671 11.0454 12.5671 9.67501 12.5671 8.30695C12.5671 6.27366 12.5788 4.24036 12.5624 2.20707C12.5553 1.28093 12.8394 0.54518 13.7341 0.159677C14.6475 -0.235228 15.366 0.143223 16.007 0.782593C17.4887 2.26349 18.9962 3.72088 20.4403 5.23468C20.9545 5.77532 21.3231 5.867 22.0158 5.48149C29.6965 1.18925 37.9524 -0.644237 46.7132 0.201988C59.7194 1.45957 70.1098 7.45132 77.8186 18.0009C79.265 19.9802 80.3898 22.2038 81.5967 24.35C82.3504 25.6898 82.0945 26.8205 81.0566 27.3494C79.9789 27.8994 78.9786 27.4669 78.3 26.073C76.0105 21.3811 72.9721 17.2581 69.0649 13.791C63.3636 8.73006 56.7655 5.52381 49.2398 4.29443C40.4954 2.86525 32.216 4.30383 24.3898 8.43153C24.2559 8.50205 24.1385 8.59842 23.9929 8.6995C25.9113 10.6364 27.7781 12.5639 29.6988 14.4397C30.469 15.1919 30.8165 16.0052 30.8001 17.0936C30.7508 20.502 30.7602 23.9128 30.8071 27.3212C30.8142 27.7842 31.0537 28.3578 31.3777 28.6869C34.8412 32.2105 38.3446 35.6917 41.8292 39.1918C42.1133 39.4786 42.3974 39.7818 42.6064 40.1227C43.0549 40.8514 42.921 41.7728 42.334 42.3581C41.754 42.9364 40.8148 43.068 40.0986 42.6214C39.7581 42.4098 39.4576 42.1254 39.1711 41.841C35.6983 38.3715 32.2254 34.9043 28.7737 31.4136C28.3182 30.9529 27.8603 30.7695 27.2169 30.7766C23.8121 30.8048 20.405 30.7648 17.0003 30.8048C15.9812 30.8165 15.2181 30.4733 14.5136 29.7588C12.6046 27.8265 10.651 25.9413 8.60815 23.9316C2.20251 36.6155 1.77046 49.363 8.69268 61.8189C15.9413 74.8626 27.4541 81.3926 42.3504 82.2812V74.959C40.695 74.7497 39.0255 74.5993 37.3795 74.3219C31.838 73.3887 26.9022 71.0734 22.5935 67.4934C17.1881 62.999 13.6401 57.301 11.9683 50.456C10.8694 45.9546 10.7942 41.4226 11.6583 36.8741C11.8955 35.6283 12.8394 34.9043 13.9008 35.1252C15.0091 35.3579 15.5891 36.3264 15.3331 37.6757C14.8142 40.4306 14.6663 43.1949 14.9903 45.9828C15.7793 52.7925 18.6158 58.5939 23.5703 63.3375C28.0012 67.5803 33.2867 70.0555 39.3449 70.8877C40.3005 71.0193 41.2727 71.0428 42.3974 71.1298V70.1966C42.3974 67.538 42.4091 64.8795 42.3833 62.2209C42.3786 61.8425 42.2988 61.3864 42.0804 61.0997C41.0684 59.7763 40.6175 58.293 40.6199 56.6476C40.6222 53.0511 40.6105 49.4523 40.6246 45.8558C40.6316 44.1963 41.3126 43.5405 42.9821 43.5381C47.1382 43.5311 51.2944 43.5381 55.4505 43.5381C55.791 43.5381 56.1315 43.5381 56.6034 43.5381C56.6034 42.3675 56.5988 41.2533 56.6034 40.1391C56.6152 37.5558 57.9466 36.2347 60.5459 36.23C63.3895 36.2253 66.233 36.23 69.0766 36.23C69.4171 36.23 69.7575 36.23 70.3774 36.23C69.6378 34.3096 69.1095 32.469 68.2571 30.7954C63.5186 21.4869 55.9554 16.1298 45.5533 15.0227C43.3132 14.7853 41.0144 15.1003 38.7437 15.1684C38.307 15.1825 37.8703 15.2672 37.4359 15.2483C36.5224 15.2084 35.8509 14.569 35.7264 13.6805C35.6114 12.8554 36.0552 12.0068 36.8723 11.7459C37.5791 11.5203 38.3281 11.3839 39.0678 11.311C49.5427 10.2627 58.5453 13.4055 65.9325 20.9369C69.9337 25.0175 72.5494 29.9092 73.8879 35.4755C73.9442 35.7129 74.0358 35.9433 74.1297 36.23C74.8576 36.23 75.5738 36.223 76.2876 36.23C78.6123 36.2582 80 37.6475 80.0305 39.991C80.0469 41.1405 80.0329 42.2899 80.0329 43.5381C80.4555 43.5381 80.7889 43.5381 81.1247 43.5381C85.2503 43.5381 89.3736 43.5593 93.4993 43.5264C94.6874 43.517 95.5632 43.8766 95.9976 45.0402V57.9898L96 57.9851ZM90.4279 76.9382C90.0123 76.9382 89.6765 76.9382 89.3408 76.9382C86.2788 76.9382 83.2192 76.9382 80.1573 76.9382C79.4388 76.9382 78.7156 76.9781 78.0041 76.9029C76.9498 76.7924 76.2782 75.9979 76.3041 75.0107C76.3299 74.0657 77.0061 73.3441 78.0158 73.2124C78.2929 73.1772 78.577 73.1889 78.8588 73.1889C82.3575 73.1889 85.8562 73.1889 89.3525 73.1889H90.3481V63.6477H73.9254C72.8242 66.9433 71.0936 68.5535 68.4473 68.4736C67.3742 68.4407 66.2307 68.0857 65.2727 67.5827C63.7628 66.7858 63.056 65.2955 62.7226 63.6336H46.145V64.6185C46.145 70.0273 46.145 75.4361 46.145 80.8449C46.145 82.1566 46.1872 82.1965 47.5351 82.1965C61.3725 82.1965 75.2075 82.1965 89.0449 82.1989C89.2633 82.1989 89.5263 82.2741 89.6906 82.1777C89.97 82.0155 90.3833 81.7546 90.3927 81.5195C90.4561 80.0292 90.4256 78.5343 90.4256 76.9405L90.4279 76.9382ZM92.2407 47.3344H44.4144C44.398 47.6846 44.3722 47.9879 44.3722 48.2934C44.3698 50.9826 44.3651 53.6717 44.3722 56.3608C44.3792 58.7702 45.4664 59.8562 47.8591 59.8562C52.4825 59.8585 57.1059 59.8562 61.7294 59.8562H62.7062C62.7062 59.2732 62.6804 58.8031 62.7109 58.3377C62.8142 56.704 63.6454 55.9118 65.2914 55.9001C67.3531 55.8836 69.4147 55.8742 71.4764 55.9048C73.0026 55.9259 73.8339 56.7816 73.8879 58.3071C73.9043 58.796 73.8902 59.285 73.8902 59.8303C79.2204 59.8303 84.4309 59.8679 89.6413 59.8045C91.0784 59.788 92.2054 58.5257 92.2266 57.066C92.2759 53.8503 92.2407 50.6323 92.2407 47.3344V47.3344ZM24.2207 27.032C24.115 26.8275 24.0986 26.7641 24.0587 26.7217C20.715 23.3533 17.3689 19.9849 14.0158 16.6235C13.8703 16.4777 13.6589 16.3014 13.4781 16.2991C11.2169 16.2779 8.95332 16.285 6.66626 16.285C6.70383 16.4472 6.69679 16.5177 6.72966 16.5529C10.0945 19.9449 13.457 23.3392 16.8336 26.7194C16.9909 26.8769 17.2562 27.0179 17.4723 27.0179C19.6795 27.0391 21.889 27.032 24.2184 27.032H24.2207ZM16.5424 6.55573L16.3123 6.67326C16.3123 8.66189 16.3358 10.6529 16.2982 12.6415C16.2865 13.3114 16.4602 13.7957 16.951 14.2799C20.0599 17.3498 23.1312 20.455 26.2166 23.5461C26.4279 23.7576 26.6533 23.9527 27.022 24.2936C27.022 21.8442 27.0267 19.5829 27.0103 17.3192C27.0103 17.1594 26.8764 16.9714 26.7543 16.8468C23.3543 13.4125 19.9472 9.98294 16.5401 6.55338L16.5424 6.55573ZM60.398 43.4841H76.2148V40.0286H60.398V43.4841ZM66.5477 59.6916C66.5477 60.9328 66.4749 62.1433 66.5712 63.3375C66.6393 64.1907 67.4282 64.7431 68.2782 64.7549C69.1189 64.7643 69.9642 64.2213 70.0393 63.3892C70.1497 62.1692 70.0675 60.9328 70.0675 59.694H66.5477V59.6916Z" fill="url(#paint0_linear_1300_332)"/>
<path d="M26.6581 35.6284C27.8016 35.666 28.5906 36.6345 28.3816 37.8028C28.1843 38.9052 27.8321 39.9888 27.7194 41.0983C27.1206 47.0548 29.2152 51.8572 34.01 55.4607C34.334 55.7051 34.6862 55.912 35.0032 56.1635C35.9284 56.8969 36.1397 58.0323 35.5269 58.8855C34.9328 59.7106 33.8409 59.8516 32.8571 59.2217C30.8659 57.95 29.079 56.4315 27.6959 54.5134C23.8896 49.2362 22.8635 43.456 24.7303 37.1963C25.0614 36.0868 25.7047 35.5955 26.6581 35.6284V35.6284Z" fill="url(#paint1_linear_1300_332)"/>
<path d="M43.0197 23.8612C47.8145 23.9317 52.0435 25.4972 55.6502 28.6941C56.7115 29.6343 56.9158 30.6639 56.2043 31.5548C55.4717 32.4692 54.3235 32.5021 53.241 31.5524C50.0664 28.7646 46.3775 27.4083 42.1697 27.6293C40.8172 27.6998 39.4811 28.1017 38.138 28.3579C37.6825 28.4449 37.2269 28.6236 36.7737 28.6142C35.9143 28.5977 35.2075 27.8643 35.0925 27.004C34.9798 26.139 35.4635 25.2504 36.4262 25.0036C38.199 24.5499 40.0071 24.2232 41.8057 23.8777C42.1955 23.8024 42.6135 23.8659 43.0197 23.8659V23.8612Z" fill="url(#paint2_linear_1300_332)"/>
<path d="M82.8201 31.3245C83.865 31.3245 84.6892 32.1707 84.6751 33.2379C84.6633 34.2228 83.7899 35.0902 82.8201 35.0784C81.7752 35.0667 80.9745 34.2181 80.9862 33.1368C80.998 32.0955 81.7752 31.3268 82.8201 31.3245Z" fill="url(#paint3_linear_1300_332)"/>
<path d="M70.8237 75.0343C70.8424 76.0098 69.9736 76.9031 68.9874 76.9219C67.9965 76.9407 67.1301 76.0921 67.1183 75.0884C67.1043 74.0823 67.9402 73.2149 68.9358 73.1985C69.9102 73.182 70.8072 74.0541 70.8237 75.0343V75.0343Z" fill="url(#paint4_linear_1300_332)"/>
</g>
<defs>
<linearGradient id="paint0_linear_1300_332" x1="16.4777" y1="-0.00140808" x2="104.183" y2="17.2586" gradientUnits="userSpaceOnUse">
<stop stop-color="#5A4FFD"/>
<stop offset="1" stop-color="#FF64A1"/>
</linearGradient>
<linearGradient id="paint1_linear_1300_332" x1="25.8915" y1="35.6269" x2="37.2392" y2="36.632" gradientUnits="userSpaceOnUse">
<stop stop-color="#5A4FFD"/>
<stop offset="1" stop-color="#FF64A1"/>
</linearGradient>
<linearGradient id="paint2_linear_1300_332" x1="38.7746" y1="23.8409" x2="55.7581" y2="31.5101" gradientUnits="userSpaceOnUse">
<stop stop-color="#5A4FFD"/>
<stop offset="1" stop-color="#FF64A1"/>
</linearGradient>
<linearGradient id="paint3_linear_1300_332" x1="81.6193" y1="31.3245" x2="85.0182" y2="31.9133" gradientUnits="userSpaceOnUse">
<stop stop-color="#5A4FFD"/>
<stop offset="1" stop-color="#FF64A1"/>
</linearGradient>
<linearGradient id="paint4_linear_1300_332" x1="67.7542" y1="73.1982" x2="71.1659" y2="73.7968" gradientUnits="userSpaceOnUse">
<stop stop-color="#5A4FFD"/>
<stop offset="1" stop-color="#FF64A1"/>
</linearGradient>
<clipPath id="clip0_1300_332">
<rect width="96" height="86" fill="white"/>
</clipPath>
</defs>
</svg>
