<svg width="96" height="96" viewBox="0 0 96 96" fill="none" xmlns="http://www.w3.org/2000/svg">
<g clip-path="url(#clip0_1300_320)">
<path d="M20.4504 43.373C16.6417 43.373 12.9053 43.4066 9.16635 43.3653C5.07315 43.3188 1.4971 40.5801 0.380073 36.7185C-0.954158 32.1084 1.32128 27.364 5.75578 25.5003C6.01694 25.3893 6.27551 25.2732 6.57804 25.1415C5.84887 21.7988 6.08158 18.5541 7.51407 15.4747C10.0998 9.91979 14.4929 6.70869 20.5901 6.2802C26.6949 5.84913 31.4656 8.45105 34.796 13.5929C35.1864 14.197 35.476 14.3931 36.2337 14.2279C41.1181 13.1644 46.1266 15.2295 48.9476 19.4421C49.3303 20.0126 49.7492 20.2216 50.4137 20.3197C52.2574 20.5908 54.101 20.9134 55.9136 21.3419C56.5807 21.4994 56.9582 21.3935 57.4185 20.9315C63.1303 15.1907 68.8473 9.45516 74.5928 3.74798C79.2368 -0.864753 86.332 -1.25711 91.3146 2.76709C97.1558 7.48565 97.6186 15.9987 92.2688 21.4064C86.6655 27.0723 81.0209 32.6969 75.3556 38.3034C74.6471 39.003 74.4894 39.5786 74.7609 40.5543C75.2082 42.1598 75.4021 43.8351 75.6943 45.4819C75.7486 45.7917 75.7771 46.1092 75.8262 46.4861H78.9627C78.9627 47.5495 78.9575 48.5407 78.9627 49.532C78.9704 50.8561 79.56 51.8319 80.7727 52.3662C82.0267 52.9186 83.1877 52.6837 84.1496 51.7234C84.8762 50.9981 85.533 50.2031 86.2001 49.4597C88.5247 51.7854 90.6656 53.9304 93.0161 56.2846C92.3231 56.8937 91.568 57.4926 90.8854 58.1663C89.7787 59.2582 89.5202 60.443 90.0864 61.6768C90.6734 62.9571 91.7051 63.5405 93.1065 63.5121C94.0348 63.494 94.9631 63.5095 95.9405 63.5095V72.8021C95.0019 72.8021 94.0503 72.815 93.0962 72.7995C91.6973 72.7763 90.6475 73.339 90.0864 74.64C89.5072 75.9848 89.8615 77.1593 90.888 78.1582C91.5551 78.8087 92.23 79.454 92.8351 80.04C90.601 82.2702 88.4445 84.4255 86.1251 86.7435C85.5795 86.1369 84.9538 85.4039 84.2867 84.7095C83.3248 83.708 82.1793 83.3724 80.8554 83.899C79.6143 84.392 78.973 85.4503 78.9627 86.9784C78.9575 87.8819 78.9627 88.7827 78.9627 89.761H69.6722C69.6722 88.824 69.6618 87.869 69.6722 86.9165C69.6903 85.5148 69.1085 84.472 67.8105 83.9196C66.5073 83.3646 65.3489 83.6847 64.3689 84.6837C63.694 85.3729 63.032 86.075 62.2253 86.9191C61.6202 86.217 61.1057 85.6181 60.4489 84.854C60.2705 87.2546 59.2569 88.7879 57.2194 89.5984C56.997 89.6862 56.816 89.9856 56.7048 90.2257C54.9672 93.9401 52.066 96.0077 47.9651 96C43.9029 95.9922 41.0353 93.922 39.2926 90.2618C39.1555 89.9753 38.9021 89.6655 38.6254 89.5339C35.4838 88.029 34.7133 85.0941 36.5957 82.3528C36.1613 80.9383 35.7656 79.6554 35.3338 78.2512C35.0106 78.6099 34.6486 79.0488 34.2478 79.4514C31.5613 82.1489 28.8721 84.8437 26.17 87.5231C25.8597 87.8302 25.4796 88.1193 25.0763 88.2742C18.6818 90.7522 12.2796 93.2174 5.87214 95.6618C3.23471 96.6685 0.628302 95.3546 0.11633 92.714C-0.0284706 91.9629 0.0465153 91.0723 0.31543 90.3573C2.76411 83.8448 5.26967 77.3555 7.78557 70.8687C7.94072 70.4686 8.25617 70.1047 8.56646 69.7923C12.7527 65.5849 16.9597 61.3955 21.1356 57.1751C21.3916 56.917 21.6373 56.3568 21.5313 56.0729C20.0212 52.0358 19.8221 47.9006 20.4737 43.6854C20.484 43.6234 20.4659 43.5563 20.453 43.3756L20.4504 43.373ZM15.535 34.0443C15.4522 33.5539 15.4031 33.1719 15.3204 32.795C14.6377 29.6433 11.6383 27.5008 8.51733 27.9293C5.27484 28.3733 2.95545 31.1507 3.10025 34.4135C3.24764 37.7304 5.98074 40.2755 9.4637 40.2755C23.2714 40.2858 37.0766 40.2807 50.8843 40.2781C51.0447 40.2781 51.2076 40.2833 51.3679 40.2678C53.2632 40.0768 54.644 39.1372 55.3757 37.369C56.0946 35.6292 55.7998 33.9901 54.569 32.5885C53.3097 31.1585 51.6911 30.6448 49.8449 31.1791C47.6729 31.809 46.6438 33.4093 46.3955 35.5724H43.3444C43.4607 32.9654 44.4485 30.8281 46.5843 29.4445C47.6858 28.7321 47.9444 27.8545 47.9883 26.7264C48.1745 21.902 44.7588 17.8649 39.8485 17.1138C35.3726 16.4298 30.8838 19.5247 29.697 24.0755C29.516 24.7673 29.6427 25.077 30.3382 25.3687C32.6524 26.3418 34.1108 28.6185 33.9892 30.9339H31.0338C30.5864 28.9928 29.5651 27.9061 28.0266 27.9216C27.3853 27.9267 26.5863 28.0816 26.1493 28.4843C25.459 29.1193 25.0168 30.0201 24.3988 30.9081H21.7097C21.7381 28.3165 23.2637 26.1921 25.6968 25.1751C26.0304 25.0357 26.4131 24.6279 26.4777 24.2871C27.1268 20.8876 28.8385 18.1902 31.6466 16.182C31.9026 15.9987 32.156 15.8154 32.3964 15.6425C32.3499 15.5134 32.3396 15.4463 32.3059 15.3921C29.3763 10.2502 22.9017 7.96835 17.2881 10.1005C11.6538 12.2404 8.26135 18.3709 9.50766 24.1168C9.62661 24.6588 9.88518 24.8189 10.4075 24.8834C12.8148 25.1777 14.8213 26.2618 16.3831 28.1177C17.813 29.8162 18.5551 31.7754 18.5473 34.0418H15.5376L15.535 34.0443ZM56.6919 74.3379C58.37 70.2182 61.4341 67.1259 64.5602 64.08C65.5066 63.1559 66.4349 62.2137 67.3476 61.2561C70.5772 57.8694 72.5475 53.9098 72.7414 49.1732C73.2275 37.2632 65.2454 26.7006 53.6459 23.9103C52.7228 23.6883 51.7738 23.567 50.874 23.4069C50.9645 24.9738 51.0447 26.4012 51.13 27.8622C51.267 27.8751 51.4248 27.8906 51.5825 27.9035C55.5516 28.2391 58.6286 31.3366 58.8199 35.1878C59.019 39.1991 56.3092 42.6296 52.2651 43.2388C50.6232 43.4866 48.9218 43.3524 47.2462 43.373C45.9689 43.3885 44.689 43.3756 43.4504 43.3756C43.3961 43.5563 43.3625 43.6157 43.3625 43.675C43.3547 44.9321 43.3496 46.1918 43.3496 47.4489C43.3496 49.088 43.8357 49.5707 45.4854 49.5707C49.3872 49.5707 53.2916 49.5603 57.1935 49.5758C59.3422 49.5836 61.129 50.9 61.7211 52.854C62.6313 55.8509 60.4386 58.8348 57.2504 58.8529C52.1875 58.8865 47.1221 58.8581 42.0593 58.8658C40.9371 58.8658 40.2389 59.5008 40.2596 60.4404C40.2777 61.3464 40.9526 61.9375 42.0257 61.9556C42.9927 61.9711 43.9624 61.9427 44.9294 61.9633C47.5203 62.0201 49.4984 63.9974 49.5346 66.5993C49.5656 68.8579 49.5398 71.1165 49.5449 73.3751C49.5449 73.6849 49.5734 73.9946 49.5889 74.3354H56.6944L56.6919 74.3379ZM40.2493 43.435H23.6929C22.5397 49.4881 23.3594 55.061 27.4345 59.8286C29.2315 61.9324 31.2484 63.8528 33.1928 65.8275C35.5588 68.2307 37.7204 70.7732 39.1064 73.894C39.1943 74.0901 39.4399 74.3509 39.6132 74.3534C41.8602 74.3844 44.1072 74.3741 46.4421 74.3741C46.4421 74.0308 46.4421 73.814 46.4421 73.5971C46.4395 71.243 46.4628 68.8863 46.4188 66.5322C46.4033 65.6365 45.7594 65.0944 44.8157 65.066C43.784 65.0376 42.7523 65.0789 41.7206 65.0505C39.1478 64.9834 37.1361 62.9133 37.1542 60.3707C37.1723 57.8746 39.1736 55.8406 41.6999 55.7709C42.7316 55.7425 43.7633 55.7631 44.795 55.7631C48.8597 55.7631 52.9219 55.7683 56.9866 55.758C58.2226 55.7554 59.0268 54.9345 58.7863 53.9227C58.5639 52.996 57.9046 52.6553 56.9841 52.6579C53.0176 52.6708 49.0485 52.6734 45.082 52.6579C42.2429 52.6475 40.2725 50.6806 40.2493 47.8567C40.2363 46.4086 40.2493 44.9579 40.2493 43.4272V43.435ZM63.482 69.6452C61.7159 71.496 60.3507 73.5197 59.4612 75.8557C59.3862 76.0545 59.5801 76.3926 59.712 76.6301C60.2627 77.6213 60.511 78.6538 60.3041 79.7896C60.2602 80.0322 60.3093 80.3781 60.4593 80.5588C60.9867 81.2015 61.5763 81.7952 62.1632 82.4276C64.2758 80.5924 66.5098 80.0142 68.9973 81.0622C71.4693 82.1024 72.6277 84.1003 72.8242 86.6687H75.8262C76.0305 83.9919 77.2225 82.0534 79.6763 81.0415C82.1638 80.0167 84.3953 80.6233 86.3346 82.3037C87.0818 81.5836 87.7722 80.915 88.4962 80.2155C86.7612 78.2073 86.1691 75.9745 87.2137 73.4835C88.2506 71.0081 90.2416 69.844 92.8247 69.6529V66.6458C90.1562 66.4418 88.2092 65.2596 87.2008 62.7997C86.1794 60.3139 86.7715 58.076 88.4342 56.1607C87.7231 55.4069 87.0637 54.7074 86.3682 53.9692C84.5271 55.567 82.4637 56.2149 80.0952 55.4276C77.7138 54.6351 76.3925 52.8902 75.8986 50.6445C75.3168 52.8127 74.7169 55.0533 74.1196 57.2732C80.9097 57.3842 84.8917 62.5828 85.1296 67.5724C85.3908 73.0215 81.5484 77.9104 76.3407 78.801C70.2229 79.8464 65.6591 76.6275 63.482 69.6452V69.6452ZM75.128 7.67667C79.56 12.1113 83.9324 16.4865 88.3281 20.885C91.5655 18.2392 93.6444 14.9791 92.6592 10.529C91.8266 6.76806 89.4219 4.29779 85.6881 3.38918C81.1786 2.29214 77.8327 4.35199 75.128 7.67667V7.67667ZM21.6993 86.2608C17.7044 82.2624 13.7405 78.295 9.76623 74.3173C8.56129 77.4432 7.3098 80.6775 6.09193 83.9222C6.01953 84.1158 6.15398 84.4875 6.3143 84.6527C7.9795 86.3563 9.66281 88.0419 11.372 89.7042C11.5504 89.8772 11.9667 89.9856 12.1865 89.903C15.4005 88.6976 18.6016 87.4534 21.6993 86.2608V86.2608ZM16.8976 76.4985C20.6469 72.7479 24.3911 69.0025 28.0886 65.3035C26.5294 63.4863 24.8772 61.5555 23.318 59.7357C19.4989 63.556 15.5944 67.464 11.7314 71.3308C13.4457 73.0447 15.2376 74.8361 16.9002 76.4985H16.8976ZM24.7169 84.2449C28.2334 80.724 31.8147 77.1412 35.5614 73.3906C34.028 71.5373 32.4016 69.5703 30.8941 67.7454C26.9794 71.6638 23.2197 75.4247 19.548 79.1004C21.2365 80.7808 23.0336 82.5696 24.7169 84.2449V84.2449ZM82.0526 68.6463C82.0681 63.7341 78.2956 60.1306 73.8533 60.4636C73.0129 60.5256 72.0123 60.7992 71.4201 61.3413C69.954 62.6861 68.6715 64.2297 67.345 65.7217C67.0632 66.0392 66.7969 66.4547 66.727 66.86C66.2125 69.8569 67.1821 72.3581 69.5429 74.2166C72.0381 76.181 74.8462 76.4881 77.706 75.0891C80.5322 73.7081 81.8975 71.3075 82.05 68.6488L82.0526 68.6463ZM68.2138 14.8758C65.5118 17.5578 62.8097 20.2423 60.1929 22.839C62.2615 24.2278 64.4154 25.6707 66.4633 27.0465C68.7568 24.7647 71.1228 22.4106 73.4422 20.1055C71.7046 18.3683 69.9127 16.5743 68.2138 14.8758V14.8758ZM81.1579 27.9603C79.3686 26.1715 77.5586 24.362 75.8805 22.6867C73.6051 24.9608 71.2521 27.3175 68.9895 29.5787C70.3755 31.6567 71.8157 33.812 73.2069 35.9003C75.8417 33.27 78.5283 30.588 81.1579 27.9629V27.9603ZM85.8924 23.3734C81.4527 18.931 77.0647 14.5428 72.7854 10.2605C72.0691 10.9678 71.2805 11.7447 70.6573 12.3565C74.9962 16.6982 79.3841 21.0864 83.754 25.4565C84.416 24.8111 85.1762 24.0703 85.8924 23.3708V23.3734ZM48.0918 77.4535C45.6095 77.4535 43.1246 77.4484 40.6423 77.4535C39.4218 77.4561 38.7134 78.0343 38.7134 78.9971C38.7134 79.9625 39.4218 80.5433 40.6397 80.5459C45.5422 80.5511 50.4448 80.5511 55.3473 80.5459C56.5652 80.5459 57.2762 79.9625 57.2788 78.9997C57.2788 78.0343 56.5703 77.4561 55.3499 77.4535C52.9322 77.4458 50.512 77.4535 48.0943 77.4535H48.0918ZM47.9573 86.7461C50.4396 86.7461 52.9245 86.7513 55.4068 86.7435C56.5574 86.7384 57.253 86.1627 57.2762 85.2335C57.2995 84.2681 56.5833 83.6512 55.3835 83.6512C50.4499 83.646 45.5138 83.646 40.5802 83.6512C39.4218 83.6512 38.734 84.2216 38.7108 85.1586C38.6849 86.1292 39.3986 86.7384 40.6009 86.7435C43.0522 86.7513 45.5035 86.7435 47.9547 86.7435L47.9573 86.7461ZM42.5919 89.8978C43.9727 91.9577 45.7931 92.9566 48.1047 92.9205C50.3362 92.887 52.0789 91.8777 53.3977 89.8978H42.5919ZM4.65427 87.6289C4.16815 88.8886 3.62774 90.1869 3.17265 91.5163C2.88564 92.3552 3.62515 93.1502 4.45258 92.8766C5.8075 92.4301 7.12104 91.8699 8.41649 91.3717C7.13397 90.0966 5.90834 88.8782 4.65427 87.6289V87.6289Z" fill="url(#paint0_linear_1300_320)"/>
<path d="M74.2902 72.7995C71.7252 72.7866 69.6385 70.6571 69.6722 68.0836C69.7058 65.5617 71.808 63.5018 74.3394 63.5147C76.9044 63.525 78.9911 65.6546 78.9575 68.2307C78.9239 70.7526 76.8217 72.815 74.2902 72.8021V72.7995ZM75.8546 68.1894C75.8727 67.3531 75.1849 66.6355 74.3471 66.6174C73.5094 66.5993 72.7931 67.2859 72.775 68.1249C72.7569 68.9612 73.4447 69.6814 74.2825 69.6994C75.1177 69.7175 75.8365 69.0283 75.8546 68.1894Z" fill="url(#paint1_linear_1300_320)"/>
</g>
<defs>
<linearGradient id="paint0_linear_1300_320" x1="0.000490572" y1="90.7828" x2="103.569" y2="81.1265" gradientUnits="userSpaceOnUse">
<stop stop-color="#FF64A1"/>
<stop offset="1" stop-color="#5A4FFD"/>
</linearGradient>
<linearGradient id="paint1_linear_1300_320" x1="69.6718" y1="72.2974" x2="79.6895" y2="71.3636" gradientUnits="userSpaceOnUse">
<stop stop-color="#FF64A1"/>
<stop offset="1" stop-color="#5A4FFD"/>
</linearGradient>
<clipPath id="clip0_1300_320">
<rect width="96" height="96" fill="white"/>
</clipPath>
</defs>
</svg>
