<svg width="24" height="25" viewBox="0 0 24 25" fill="none" xmlns="http://www.w3.org/2000/svg">
<g id="calendar">
<g id="XMLID 266">
<path d="M7.80547 6.85688V4.29688C7.80547 3.73688 8.24547 3.29688 8.80547 3.29688C9.36547 3.29688 9.80547 3.73688 9.80547 4.29688V6.85688C9.80547 7.41688 9.36547 7.85688 8.80547 7.85688C8.24547 7.85688 7.80547 7.41688 7.80547 6.85688ZM15.2055 7.85688C15.7655 7.85688 16.2055 7.41688 16.2055 6.85688V4.29688C16.2055 3.73688 15.7655 3.29688 15.2055 3.29688C14.6455 3.29688 14.2055 3.73688 14.2055 4.29688V6.85688C14.2055 7.41688 14.6455 7.85688 15.2055 7.85688ZM8.44547 11.2969H15.5455C15.9855 11.2969 16.3455 10.9369 16.3455 10.4969C16.3455 10.0569 15.9855 9.69688 15.5455 9.69688H8.44547C8.00547 9.69688 7.64547 10.0569 7.64547 10.4969C7.64547 10.9369 8.00547 11.2969 8.44547 11.2969ZM19.6055 4.69687H17.9455C17.5055 4.69687 17.1455 5.05687 17.1455 5.49688C17.1455 5.93688 17.5055 6.29688 17.9455 6.29688H18.8055V19.8969H5.20547V6.29688H6.06547C6.50547 6.29688 6.86547 5.93688 6.86547 5.49688C6.86547 5.05687 6.50547 4.69687 6.06547 4.69687H4.40547C3.96547 4.69687 3.60547 5.13686 3.60547 5.57686V20.6969C3.60547 21.1369 3.96547 21.4969 4.40547 21.4969H19.6055C20.0455 21.4969 20.4055 21.1369 20.4055 20.6969V5.57686C20.4055 5.13686 20.0455 4.69687 19.6055 4.69687ZM11.3455 6.29688H12.6655C13.1055 6.29688 13.4655 5.93688 13.4655 5.49688C13.4655 5.05687 13.1055 4.69687 12.6655 4.69687H11.3455C10.9055 4.69687 10.5455 5.05687 10.5455 5.49688C10.5455 5.93688 10.9055 6.29688 11.3455 6.29688ZM8.44547 14.8969H15.5455C15.9855 14.8969 16.3455 14.5369 16.3455 14.0969C16.3455 13.6569 15.9855 13.2969 15.5455 13.2969H8.44547C8.00547 13.2969 7.64547 13.6569 7.64547 14.0969C7.64547 14.5369 8.00547 14.8969 8.44547 14.8969Z" fill="#00ACB6"/>
<path d="M7.80547 6.85688V4.29688C7.80547 3.73688 8.24547 3.29688 8.80547 3.29688C9.36547 3.29688 9.80547 3.73688 9.80547 4.29688V6.85688C9.80547 7.41688 9.36547 7.85688 8.80547 7.85688C8.24547 7.85688 7.80547 7.41688 7.80547 6.85688ZM15.2055 7.85688C15.7655 7.85688 16.2055 7.41688 16.2055 6.85688V4.29688C16.2055 3.73688 15.7655 3.29688 15.2055 3.29688C14.6455 3.29688 14.2055 3.73688 14.2055 4.29688V6.85688C14.2055 7.41688 14.6455 7.85688 15.2055 7.85688ZM8.44547 11.2969H15.5455C15.9855 11.2969 16.3455 10.9369 16.3455 10.4969C16.3455 10.0569 15.9855 9.69688 15.5455 9.69688H8.44547C8.00547 9.69688 7.64547 10.0569 7.64547 10.4969C7.64547 10.9369 8.00547 11.2969 8.44547 11.2969ZM19.6055 4.69687H17.9455C17.5055 4.69687 17.1455 5.05687 17.1455 5.49688C17.1455 5.93688 17.5055 6.29688 17.9455 6.29688H18.8055V19.8969H5.20547V6.29688H6.06547C6.50547 6.29688 6.86547 5.93688 6.86547 5.49688C6.86547 5.05687 6.50547 4.69687 6.06547 4.69687H4.40547C3.96547 4.69687 3.60547 5.13686 3.60547 5.57686V20.6969C3.60547 21.1369 3.96547 21.4969 4.40547 21.4969H19.6055C20.0455 21.4969 20.4055 21.1369 20.4055 20.6969V5.57686C20.4055 5.13686 20.0455 4.69687 19.6055 4.69687ZM11.3455 6.29688H12.6655C13.1055 6.29688 13.4655 5.93688 13.4655 5.49688C13.4655 5.05687 13.1055 4.69687 12.6655 4.69687H11.3455C10.9055 4.69687 10.5455 5.05687 10.5455 5.49688C10.5455 5.93688 10.9055 6.29688 11.3455 6.29688ZM8.44547 14.8969H15.5455C15.9855 14.8969 16.3455 14.5369 16.3455 14.0969C16.3455 13.6569 15.9855 13.2969 15.5455 13.2969H8.44547C8.00547 13.2969 7.64547 13.6569 7.64547 14.0969C7.64547 14.5369 8.00547 14.8969 8.44547 14.8969Z" fill="#158DA7"/>
</g>
</g>
</svg>
